<?xml version="1.0" encoding="utf-8" ?><svg xmlns="http://www.w3.org/2000/svg" xmlns:xlink="http://www.w3.org/1999/xlink" width="896" height="1152" viewBox="0 0 896 1152"><path fill="#4B311D" d="M427.992 385.633C437.091 384.947 440.735 384.183 449.145 387.875C456.77 383.457 481.101 384.575 488.892 388.825C501.493 385.95 515.417 385.63 527.275 391.321L532.005 389.349C554.227 393.81 555.411 393.126 555.556 416.409C559.163 418.303 560.629 419.046 563.763 421.567C566.346 435.481 566.32 479.861 561.307 491.646L556.712 495.175C556.062 506.584 557.825 513.469 555.306 525.583C556.615 528.571 557.633 531.281 557.821 534.683C558.694 550.441 557.357 567.28 554.894 582.842C554.346 586.306 551.213 591.636 550.799 595.466C548.952 612.586 550.234 637.359 538.637 651.272C526.971 665.267 495.981 668.076 478.518 669.522C449.39 672.421 406.04 671.117 378.524 660.579C369.939 657.291 362.821 652.024 359.198 643.382C352.513 627.439 353.304 611.629 351.506 594.817C350.964 589.742 347.983 585.4 347.282 581.102C344.737 565.486 343.956 547.408 345.235 531.602C345.359 530.065 346.766 526.612 347.355 525.185C344.619 516.674 346.411 505.273 345.326 494.887C343.621 493.861 342.217 492.665 340.661 491.428C336.547 474.968 335.179 439.684 338.917 422.378C339.465 419.838 344.834 417.792 347.231 416.759C346.425 392.121 349.677 392.915 372.353 390.413C384.174 389.108 395.627 384.336 408.412 388.368C410.145 388.914 411.69 387.29 413.062 386.299C417.788 385.936 423.214 385.817 427.992 385.633ZM441.711 424.224C442.936 423.205 445.891 420.878 446.84 419.829C448.511 417.87 449.772 416.347 451.687 414.586C445.317 414.481 436.517 414.218 430.183 414.91L441.711 424.224Z"/><path fill="#E6DABD" d="M402.94 503.727C411.84 503.362 421.872 502.895 430.74 503.344C440.646 503.845 445.075 507.576 451.238 514.641C454.39 510.651 456.358 508.236 460.526 505.344C470.731 504.054 556.899 498.446 553.456 515.87C550.196 518.957 544.291 517.098 540.305 516.551C522.21 514.069 502.943 514.436 484.739 515.167C463.043 516.039 468.946 553.6 470.878 567.692C472.428 575.191 475.336 584.361 474.834 591.994C474.694 594.125 474.16 596.446 472.374 597.809C468.766 600.562 439.185 600.062 433.281 599.08C431.338 598.757 429.684 598.24 428.722 596.389C423.604 586.538 441.624 536.881 429.768 521.263C421.619 510.527 382.521 514.258 370.004 515.739C364.022 516.447 356.596 518.768 350.644 517.783C343.696 512.339 355.054 507.973 359.344 506.966C373.636 503.612 388.351 503.816 402.94 503.727Z"/><path fill="#5E9587" d="M374.746 526.177C383.34 525.796 413.509 525.217 417.057 531.934C421.624 540.583 417.242 576.094 414.702 585.662C407.962 588.675 401.328 588.504 394.017 588.867C384.136 589.178 361.956 590.058 353.558 585.691C349.026 580.01 346.994 537.533 351.149 529.671C352.931 526.301 370.34 526.334 374.746 526.177Z"/><path fill="#4B311D" d="M371.314 533.568C382.633 532.75 397.819 532.428 408.444 536.087C412.83 544.818 411.997 568.889 406.114 578.021C404.176 581.029 393.962 580.5 390.099 580.496C377.276 580.797 366.796 580.797 354.058 579.187C353.853 578.16 353.669 577.129 353.506 576.094C352.165 567.875 348.762 544.414 353.63 536.823C355.607 533.739 367.285 533.779 371.314 533.568Z"/><path fill="#E6DABD" d="M363.625 539.703C376.605 538.648 391.244 539.31 404.175 540.762C405.105 548.832 406.578 564.559 402.318 571.676C401.03 573.826 399.657 573.746 397.49 574.249C384.21 574.485 372.034 575.058 358.862 573.274C357.502 566.127 353.554 548.281 357.709 541.944C358.97 540.021 361.449 539.98 363.625 539.703Z"/><path fill="#4B311D" d="M550.972 583.191C548.756 590.388 534.682 588.424 529.156 588.46C519.583 588.505 496.9 590.733 489.349 585.048C483.564 580.692 480.462 532.633 486.9 529.811C501.622 523.357 534.251 526.022 549.369 528.204C551.375 529.241 552.225 529.854 552.792 532.126C556.552 547.181 550.655 568.778 550.972 583.191Z"/><path fill="#5E9587" d="M550.972 583.191C548.756 590.388 534.682 588.424 529.156 588.46C519.583 588.505 496.9 590.733 489.349 585.048C483.564 580.692 480.462 532.633 486.9 529.811C501.622 523.357 534.251 526.022 549.369 528.204C548.834 530.485 548.056 533.445 547.659 535.691C533.77 533.201 517.628 532.83 503.542 533.708C495.979 534.5 492.417 535.794 491.645 543.597C490.931 550.806 491.341 572.879 495.991 577.656C501.789 583.611 537.164 579.217 545.71 580.299C547.614 581.277 549.13 582.094 550.972 583.191Z"/><path fill="#5E887A" d="M549.369 528.204C551.375 529.241 552.225 529.854 552.792 532.126C556.552 547.181 550.655 568.778 550.972 583.191C549.13 582.094 547.614 581.277 545.71 580.299C551.837 578.167 552.06 547.529 550.867 540.852C550.329 537.841 550.125 537.149 547.659 535.691C548.056 533.445 548.834 530.485 549.369 528.204Z"/><path fill="#E6DABD" d="M516.38 539.72C522.769 539.358 539.776 538.331 544.517 542.023C548.646 545.237 546.121 569.181 542.867 573.232C539.073 575.225 532.679 574.524 528.26 574.379C517.985 574.505 510.086 574.682 499.944 573.534C496.936 561.162 496.778 553.453 497.932 541.154C504.599 539.818 509.681 539.786 516.38 539.72Z"/><path fill="#AE5048" d="M468.33 611.679C476.852 611.178 506.2 612.065 494.787 633.754C492.149 638.769 461.588 636.917 453.766 636.832C447.992 636.763 442.217 636.867 436.45 637.147C431.831 637.213 412.291 637.823 408.056 634.082C405.349 631.758 405.443 624.261 406.442 621.237C409.336 612.006 422.893 611.627 431.056 611.762C443.659 611.971 455.642 612.275 468.33 611.679Z"/><path fill="#4B311D" d="M417.997 619.463C438.561 619.204 459.55 618.999 480.11 619.847C481.894 620.104 486.295 620.118 487.213 622.013C489.06 625.821 487.761 627.149 484.665 628.801C474.118 628.664 462.86 628.543 452.381 628.404C443.813 628.289 423.058 629.669 415.836 627.069C414.41 625.352 414.827 626.309 414.546 624.089C415.248 621.967 416.423 621.075 417.997 619.463Z"/><path fill="#AE5048" d="M362.923 521.067C375.345 519.643 413.453 515.245 423.167 522.644C427.049 525.6 428.21 530.233 428.687 534.836C430.142 548.88 427.735 563.627 425.421 577.447C424.521 582.822 422.944 588.838 422.924 594.26C422.916 596.658 423.118 599.533 425.113 601.177C426.789 602.559 429.24 603.248 431.358 603.561C437.152 604.418 465.708 604.456 471.169 603.646C473.554 603.293 476.839 602.471 478.311 600.397C483.999 592.384 466.072 540.795 476.893 525.036C478.741 522.344 481.466 521.069 484.56 520.323C499.568 516.705 532.019 519.767 547.897 522.119L547.264 522.202C536.22 523.54 491.681 518.159 481.94 527.438C476.997 532.146 479.657 568.476 481.093 576.854C481.766 580.78 483.22 585.912 485.546 589.857C490.41 592.197 493.587 592.985 498.83 594.222C499.1 600.723 499.543 607.918 499.394 614.361C497.177 612.801 492.242 609.264 489.498 608.936C468.74 606.453 447.542 607.159 426.672 607.807C416.252 608.13 412.45 607.867 403.866 614.125L404.074 594.11C407.365 593.313 416.696 591.787 417.863 588.507C421.843 577.321 429.247 532.197 417.722 525.801C409.005 520.963 376.94 521.038 366.048 522.25C365.021 521.962 363.926 521.471 362.923 521.067Z"/><path fill="#5E9587" d="M423.656 486.845C437.715 486.285 455.598 486.492 469.796 486.59C495.866 486.768 527.713 486.34 552.789 492.609L552.739 501.702C531.257 496.913 502.344 495.772 479.986 495.535C440.024 495.601 388.713 494.139 349.877 501.385L349.834 492.608C374.922 487.298 398.116 487.345 423.656 486.845Z"/><path fill="#E0AD5B" d="M450.268 643.766C462.326 643.579 480.609 643.559 492.076 646.941C511.171 669.8 466.102 665.606 454.382 665.794C447.829 665.796 410.535 666.058 408.099 661.829C395.525 640.004 438.83 643.982 450.268 643.766Z"/><path fill="#B9574B" d="M453.891 390.048C458.781 389.901 462.272 389.863 467.206 390.147C486.271 390.387 485.401 391.049 484.834 409.481C479.168 409.572 455.75 411.451 453.177 406.837C453.45 405.762 453.691 392.816 453.891 390.048Z"/><path fill="#AE5048" d="M453.891 390.048C458.781 389.901 462.272 389.863 467.206 390.147C464.161 395.069 461.63 398.747 457.297 402.648C456 403.816 453.898 405.373 453.177 406.837C453.45 405.762 453.691 392.816 453.891 390.048Z"/><path fill="#AE5048" d="M414.845 390.43C424.638 390.294 434.432 390.253 444.225 390.305C444.449 396.141 445.431 404.025 443.378 409.367L413.918 410.059C413.313 401.978 413.642 398.307 414.845 390.43Z"/><path fill="#AE5048" d="M505.329 416.113C507.741 416.852 518.721 430.619 521.082 433.418C514.956 438.174 509.208 442.658 502.799 447.056C497.461 441.579 492.182 436.046 486.961 430.458C493.088 425.336 498.961 420.893 505.329 416.113Z"/><path fill="#4B311D" d="M504.479 424.06C507.656 426.799 509.4 428.676 512.24 431.807C509.825 434.397 507.556 436.251 504.85 438.538L503.6 438.513C500.633 435.953 499.631 434.737 497.139 431.657C499.647 428.095 501.139 426.784 504.479 424.06Z"/><path fill="#E0AD5B" d="M419.765 449.851C424.425 451.463 433.813 459.802 437.763 463.16L420.505 479.118L419.906 479.471C417.041 478.784 405.825 468.771 402.724 466.127C408.217 460.509 413.901 455.081 419.765 449.851Z"/><path fill="#4B311D" d="M419.653 458.219C423.372 458.804 425.525 461.488 428.109 464.131L420.928 471.018C416.393 470.411 415.239 468.77 411.994 465.606L419.653 458.219Z"/><path fill="#AE5048" d="M397.419 432.562C403.7 437.136 409.926 441.784 416.096 446.504C412.191 450.088 408.121 453.68 404.522 457.558C402.691 459.429 400.377 461.37 398.384 463.128C393.949 459.315 384.776 453.453 382.307 448.763C382.317 446.826 382.357 447.401 383.904 445.49L397.419 432.562Z"/><path fill="#B9574B" d="M383.904 445.49L390.591 447.824C392.795 449.607 396.609 452.934 399.102 453.818C401.889 454.806 402.475 455.387 404.522 457.558C402.691 459.429 400.377 461.37 398.384 463.128C393.949 459.315 384.776 453.453 382.307 448.763C382.317 446.826 382.357 447.401 383.904 445.49Z"/><path fill="#4B311D" d="M397.42 440.79C401.638 442.74 403.153 443.822 406.311 447.314C404.13 449.377 401.451 452.057 399.102 453.818C396.609 452.934 392.795 449.607 390.591 447.824L397.42 440.79Z"/><path fill="#AE5048" d="M495.04 391.49C503.658 391.354 514.527 392.231 523.021 393.412C523.184 399.226 523.081 405.35 523.065 411.195C513.66 411.001 503.873 410.439 494.447 410.031C494.442 403.427 494.596 398.075 495.04 391.49Z"/><path fill="#E0AD5B" d="M462.534 414.482C467.777 416.437 475.673 425.135 479.85 429.371C474.211 433.829 468.481 438.172 462.663 442.395C461.437 442.301 447.4 429.412 445.228 427.483C450.539 422.299 456.19 418.264 462.534 414.482Z"/><path fill="#4B311D" d="M462.293 422.304C464.301 422.714 468.651 427.657 470.373 429.431L463.3 434.906C460.618 433.951 457.207 430.126 455.226 428.057L462.293 422.304Z"/><path fill="#B9574B" d="M420.57 414.445C426.091 417.901 432.267 423.358 437.232 427.617C431.414 432.769 425.674 437.932 419.607 442.795C413.662 438.265 407.98 433.929 402.239 429.124C408.693 423.095 413.323 419.481 420.57 414.445Z"/><path fill="#4B311D" d="M419.659 422.242C422.578 423.24 425.453 426.038 427.8 428.082C425.198 430.144 422.531 432.459 419.972 434.601C417.704 434.435 413.816 430.396 412.204 428.804L419.659 422.242Z"/><path fill="#AE5048" d="M398.554 391.738L403.718 391.516C404.24 398.424 404.377 403.555 404.374 410.524C397.471 410.502 390.681 411.179 383.692 411.209L376.87 411.311L376.874 393.428L398.554 391.738Z"/><path fill="#5E887A" d="M368.227 421.768C370.277 419.473 371.625 417.635 375.017 417.54C380.957 417.373 388.535 424.859 392.689 428.961C388.998 432.561 385.152 436.46 381.263 439.807L376.052 444.816C370.378 440.322 365.256 436.213 359.848 431.418C362.768 427.796 364.945 425.127 368.227 421.768Z"/><path fill="#5E9587" d="M368.227 421.768C370.383 423.371 370.717 424.292 371.558 426.921L367.734 430.719C371.644 434.1 372.44 435.445 377.436 435.204C380.735 435.506 380.455 436.828 381.263 439.807L376.052 444.816C370.378 440.322 365.256 436.213 359.848 431.418C362.768 427.796 364.945 425.127 368.227 421.768Z"/><path fill="#4B311D" d="M371.558 426.921L375.356 423.093L382.806 429.68L377.436 435.204C372.44 435.445 371.644 434.1 367.734 430.719L371.558 426.921Z"/><path fill="#AE5048" d="M374.535 454.783C376.44 453.076 375.951 452.953 377.985 452.769C382.708 455.622 390.455 462.59 394.813 466.385L387.748 473.254L378.688 482.256L362.463 468.034C366.619 463.932 370.722 459.2 374.535 454.783Z"/><path fill="#B9574B" d="M374.535 454.783C376.44 453.076 375.951 452.953 377.985 452.769C382.708 455.622 390.455 462.59 394.813 466.385L387.748 473.254C385.549 471.417 385.468 470.756 385.294 467.945C383.329 464.407 381.035 462.972 377.83 460.627C375.721 458.194 375.579 457.744 374.535 454.783Z"/><path fill="#4B311D" d="M377.83 460.627C381.035 462.972 383.329 464.407 385.294 467.945C384.346 469.112 380.183 472.822 378.862 474.049L370.87 467.592C373.07 464.903 375.274 462.979 377.83 460.627Z"/><defs><linearGradient id="gradient_0" gradientUnits="userSpaceOnUse" x1="454.07333" y1="449.73825" x2="427.83887" y2="440.32904"><stop offset="0" stop-color="#60867E"/><stop offset="1" stop-color="#6FA190"/></linearGradient></defs><path fill="url(#gradient_0)" d="M441.103 431.283C446.93 434.937 452.772 440.859 457.752 445.661L441.566 459.613L424.242 446.275C429.643 441.186 435.503 436.187 441.103 431.283Z"/><path fill="#4B311D" d="M440.866 439.154L449.273 445.414L441.98 451.912C439.552 451.019 435.718 447.581 433.574 445.792L440.866 439.154Z"/><path fill="#B9574B" d="M462.375 449.313C467.772 454.096 473.88 459.282 478.858 464.401C474.606 467.739 465.756 475.651 461.804 477.571C458.385 475.144 455.309 472.186 452.209 469.353C449.915 467.506 447.916 465.518 445.798 463.478C448.589 461.322 452.96 457.034 455.92 454.466L462.375 449.313Z"/><path fill="#AE5048" d="M445.798 463.478C448.589 461.322 452.96 457.034 455.92 454.466C457.35 456.862 457.572 457.251 459.685 459.046C458.511 460.454 456.747 462.435 455.748 463.885C454.318 465.727 452.973 467.168 452.209 469.353C449.915 467.506 447.916 465.518 445.798 463.478Z"/><path fill="#4B311D" d="M459.685 459.046C464.675 457.121 466.736 460.44 469.417 464.213L462.626 470.09L455.748 463.885C456.747 462.435 458.511 460.454 459.685 459.046Z"/><path fill="#E0AD5B" d="M482.417 433.518C487.014 435.411 495.44 445.429 499.173 449.591C494 453.834 488.92 457.425 483.469 461.314C479.332 459.068 470.165 450.076 466.44 446.467C471.235 441.909 477.122 437.586 482.417 433.518Z"/><path fill="#4B311D" d="M482.556 441.485C485.623 443.202 488.165 446.287 490.412 448.921L483.541 453.881C480.477 451.438 478.311 449.281 475.543 446.55L482.556 441.485Z"/><path fill="#E0AD5B" d="M393.715 594.493C395.96 594.426 396.572 594.278 398.654 594.946C401.042 598.069 399.447 628.658 399.354 634.273C399.228 641.906 399.898 654.088 399.122 661.48L392.616 660.124C392.078 637.195 392.688 617.452 393.715 594.493Z"/><path fill="#E0AD5B" d="M502.737 594.383C505.057 594.442 506.541 594.086 508.216 595.468C511.306 600.676 510.869 652.248 509.931 660.232L503.339 661.783C503.978 638.429 503.539 617.678 502.737 594.383Z"/><path fill="#AE5048" d="M506.782 450.803C510.751 447.085 517.736 440.224 523.146 438.93C524.902 438.509 525.591 439.464 526.886 440.451C529.148 443.96 533.773 449.147 536.568 452.614C531.613 457.272 525.695 461.895 520.373 466.22L513.008 458.22C510.809 455.987 508.747 453.27 506.782 450.803Z"/><path fill="#B9574B" d="M506.782 450.803C510.751 447.085 517.736 440.224 523.146 438.93C524.902 438.509 525.591 439.464 526.886 440.451C526.138 443.578 526.027 444.646 523.056 446.034C518.776 448.402 515.265 450.017 518.339 455.316C516.425 456.467 515.08 457.326 513.008 458.22C510.809 455.987 508.747 453.27 506.782 450.803Z"/><path fill="#4B311D" d="M523.056 446.034C530.501 453.05 525.655 459.947 518.339 455.316C515.265 450.017 518.776 448.402 523.056 446.034Z"/><path fill="#E6DABD" d="M383.063 594.519C385.454 594.453 386.164 594.317 388.466 595.005C390.358 596.939 389.637 600.849 389.52 603.622C389.169 611.954 388.687 620.256 388.518 628.597C388.333 638.797 388.374 649 388.64 659.199L381.495 656.878C380.876 636 382.043 615.362 383.063 594.519Z"/><path fill="#E6DABD" d="M502.9 453.487C507.494 458.339 512.397 464.29 516.805 469.409C511.573 473.106 506.632 477.199 501.396 480.912C496.287 475.86 491.169 470.4 486.168 465.208C491.225 460.302 496.802 456.848 502.9 453.487Z"/><path fill="#4B311D" d="M500.912 461.059C503.828 462.717 506.298 466.001 508.479 468.619L502.303 473.124C499.528 471.271 497.033 468.206 494.768 465.676L500.912 461.059Z"/><path fill="#E6DABD" d="M512.864 594.502L519.646 594.625C520.448 606.264 522.894 647.724 520.089 657.728L514.033 659.276C515.165 636.192 514.065 617.496 512.864 594.502Z"/><path fill="#E0AD5B" d="M543.996 420.007C547.492 421.684 553.275 432.801 555.291 436.396C550.404 441.371 546.977 444.478 541.402 448.506C537.071 443.567 533.275 438.856 529.188 433.706C534.085 429.097 539.021 424.531 543.996 420.007Z"/><path fill="#4B311D" d="M543.916 428.591C545.906 430.166 548.579 433.522 550.329 435.574L543.633 441.007C541.565 439.201 538.983 436.404 537.005 434.378L543.916 428.591Z"/><path fill="#E0AD5B" d="M356.279 436.858C360.515 437.693 368.901 445.561 372.417 448.593C368.189 453.202 364.3 457.461 360.342 462.295C359.758 462.888 359.142 463.315 358.482 463.823C355.306 463.347 348.121 454.406 345.624 451.603C348.556 446.896 352.236 440.377 356.279 436.858Z"/><path fill="#4B311D" d="M356.617 443.652C359.359 445.342 360.945 446.986 363.278 449.188L357.784 455.345C355.243 454.997 353.045 451.873 351.455 449.933L356.617 443.652Z"/><path fill="#AE5048" d="M523.429 470.029C528.955 465.697 534.314 461.068 539.86 456.696C542.115 459.161 543.823 461.483 545.831 464.155C547.436 466.486 549.295 469.065 550.761 471.453C546.806 475.075 542.271 479.94 537.507 482.365C534.715 483.786 533.149 482.635 531.312 480.439C528.773 477.287 525.905 473.301 523.429 470.029Z"/><path fill="#B9574B" d="M545.831 464.155C547.436 466.486 549.295 469.065 550.761 471.453C546.806 475.075 542.271 479.94 537.507 482.365C534.715 483.786 533.149 482.635 531.312 480.439C531.828 478.598 532.82 475.76 534.246 474.436C539.962 476.7 544.243 474.275 542.118 467.816C543.304 465.842 543.939 465.519 545.831 464.155Z"/><path fill="#4B311D" d="M538.725 464.823C539.749 465.799 541.037 466.868 542.118 467.816C544.243 474.275 539.962 476.7 534.246 474.436C534.165 473.264 532.726 471.666 531.939 470.616C534.412 468.049 535.843 466.982 538.725 464.823Z"/><path fill="#E6DABD" d="M523.591 594.605L530.314 594.595C530.681 614.302 533.94 632.576 530.083 652.566C528.636 653.739 527.374 654.462 525.582 654.025C525.033 651.491 525.5 632.575 525.371 628.389C525.022 617.036 524.28 605.942 523.591 594.605Z"/><path fill="#E6DABD" d="M372.844 594.447C375.338 594.477 376.432 594.29 378.061 595.874C379.453 601.066 377.629 620.624 377.541 627.321C377.422 636.303 377.421 645.709 377.479 654.778C376.424 654.345 372.569 652.77 372.438 652.237C369.379 639.758 371.832 606.164 372.844 594.447Z"/><path fill="#AE5048" d="M532.708 394.73C549.746 397.511 551.602 397.68 551.138 415.462C544.967 414.062 538.319 413.231 532.023 412.634C532.024 406.946 532.448 400.473 532.708 394.73Z"/><path fill="#AE5048" d="M364.858 395.488C366.613 395.493 365.822 395.255 367.298 396.275C369.221 400.251 368.486 408.039 368.364 412.674C364.135 413.332 359.911 414.019 355.691 414.734C348.974 414.952 350.403 406.494 352.887 402.656C356.272 397.428 359.279 396.84 364.858 395.488Z"/><path fill="#E6DABD" d="M362.34 594.305C364.701 594.385 366.344 594.2 368.128 595.465C368.528 600.186 367.667 611.556 367.468 616.784C367.173 626.374 367.112 635.97 367.283 645.564L366.416 645.637C361.354 641.287 361.93 601.792 362.34 594.305Z"/><path fill="#E0AD5B" d="M556.568 440.962C562.874 446.734 562.255 462.124 554.564 465.578C552.903 465.243 553.468 465.422 552.126 463.796C549.67 460.187 546.759 456.309 544.184 452.74L556.568 440.962Z"/><path fill="#4B311D" d="M556.415 448.866C557.405 450.144 558.855 452.735 559.739 454.206C557.532 456.519 556.679 457.175 554.1 459.064C552.928 457.528 551.517 455.14 550.445 453.453L556.415 448.866Z"/><path fill="#E6DABD" d="M534.359 594.364C541.533 594.839 540.98 596.012 540.906 603.104C540.758 617.206 540.77 630.68 537.714 644.516L536.716 645.94L535.953 645.854C535.431 643.615 535.843 629.748 535.783 626.064C535.595 615.487 535.121 604.916 534.359 594.364Z"/><path fill="#5E9587" d="M442.112 466.857C448.362 471.933 452.819 476.27 458.472 481.964L449.17 482.148L442.131 475.054L434.876 482.124L425.512 482.013C430.729 476.625 436.273 471.563 442.112 466.857Z"/><path fill="#E0AD5B" d="M343.382 455.93C347.085 458.403 352.694 465.096 355.788 468.615C352.227 473.894 349.69 477.922 346.573 483.468C345.815 484.345 346.135 484.095 345.118 484.587C343.532 483.679 341.778 478.925 342.69 477.146C343.641 475.29 348.201 472.561 348.12 470.55C347.778 462.008 340.3 466.736 343.382 455.93Z"/><path fill="#E0AD5B" d="M398.642 469.532C404.562 473.9 409.21 477.554 414.671 482.447L405.752 482.543L400.702 478.511C398.161 477.955 393.022 482.786 387.513 483.196L386.834 482.606C387.959 479.032 395.651 472.375 398.642 469.532Z"/><path fill="#E6DABD" d="M489.559 414.549L498.562 415.27L494.614 418.509L483.93 426.861C479.164 422.874 475.699 419.495 471.893 414.597C474.121 414.641 477.205 415.018 479.504 415.238L483.972 418.863L489.559 414.549Z"/><path fill="#5E9587" d="M513.482 415.702C515.984 415.613 518.891 416.113 521.413 416.441L526.532 421.573C529.021 419.782 534.696 416.523 537.448 418.871C536.889 420.791 536.554 420.617 534.918 422.256C532.349 424.679 528.692 427.548 525.917 429.858C522.427 425.469 517.29 420.001 513.482 415.702Z"/><path fill="#E0AD5B" d="M402.29 415.379L411.214 415.057C408.874 416.944 399.212 425.106 397.326 425.744C394.805 424.117 388.457 420.396 388.132 417.385L389.036 416.411C392.691 415.285 398.233 415.481 402.29 415.379Z"/><path fill="#5E9587" d="M359.198 472.267C361.746 474.166 371.891 480.93 370.285 484.296C366.077 485.831 363.082 482.714 359.953 480.242C356.706 482.065 352.704 485.596 349.734 488.041C351.757 480.454 353.738 478.035 359.198 472.267Z"/><path fill="#AE5048" d="M482.275 468.268L488.935 474.869C487.006 476.673 486.314 477.705 485.249 480.126L481.511 476.109L475.375 481.572L466.488 481.481C471.174 477.128 477.255 472.382 482.275 468.268Z"/><path fill="#E0AD5B" d="M519.33 472.481C522.28 475.07 526.066 479.278 526.616 483.278C524.029 485.31 520.473 479.785 516.691 480.762C514.069 482.36 510.883 484.185 507.878 482.498C508.257 479.747 516.852 474.281 519.33 472.481Z"/><path fill="#E0AD5B" d="M552.309 475.153C555.845 477.384 559.2 483.124 555.063 486.624C553 487.353 551.11 486.643 548.879 486.156L541.138 484.965C544.717 482.175 548.873 478.238 552.309 475.153Z"/><path fill="#AE5048" d="M362.6 418.636L363.233 418.638L363.787 419.299C363.186 422.143 358.649 426.933 355.81 427.795L354.496 426.995C352.682 425.16 350.782 423.042 349.002 421.141C353.374 420.488 358.219 419.462 362.6 418.636Z"/><path fill="#AE5048" d="M441.695 500.198L461.18 500.077L457.347 502.793C455.544 504.083 453.054 506.274 451.297 507.744C448.034 504.421 445.49 502.811 441.695 500.198Z"/><path fill="#AE5048" d="M544.033 593.083C544.701 593.38 545.943 593.85 546.163 594.471C548.052 599.806 545.39 617.486 544.841 622.691L544.655 623.058L544.175 623.04C543.475 618.681 543.806 598.145 544.033 593.083Z"/><path fill="#B9574B" d="M347.272 433.946C345.179 431.416 343.293 429.801 343.324 426.564C346.049 423.458 356.847 429.393 351.258 436.569C349.804 435.41 348.887 434.895 347.272 433.946Z"/><path fill="#E0AD5B" d="M549.618 420.425C558.339 421.482 561.041 422.672 559.906 431.786L558.164 431.625C554.03 429.063 552.028 424.632 549.618 420.425Z"/><path fill="#AE5048" d="M347.272 433.946C348.887 434.895 349.804 435.41 351.258 436.569C349.523 439.554 347.342 444.519 343.4 444.175L342.801 443.107C342.827 439.067 344.82 437.199 347.272 433.946Z"/><path fill="#AE5048" d="M357.092 593.737L358.045 594.679C359.625 599.847 359.052 616.021 358.561 621.732C356.468 616.581 355.88 599.355 357.092 593.737Z"/><path fill="#AE5048" d="M498.777 637.852C501.062 640.303 500.186 646.086 500.031 649.444L496.92 645.881L491.149 641.367C493.514 640.465 496.443 638.969 498.777 637.852Z"/><path fill="#B9574B" d="M485.249 480.126C486.314 477.705 487.006 476.673 488.935 474.869C491.556 477.397 494.243 479.885 496.581 482.673C491.447 482.778 489.176 483.4 485.249 480.126Z"/><path fill="#AE5048" d="M402.871 637.162C405.694 638.819 408.597 640.027 411.587 641.353L407.086 644.403L403.02 648.967C402.759 645.217 402.864 640.959 402.871 637.162Z"/><path fill="#E6DABD" d="M559.364 466.142L560.097 467.171C560.391 470.353 560.556 473.728 559.327 476.732L558.483 476.666L555.601 470.891L559.364 466.142Z"/><path fill="#9A4B3F" d="M353.977 522.879C357.568 521.901 359.239 521.543 362.923 521.067C363.926 521.471 365.021 521.962 366.048 522.25C363.056 522.731 357.174 522.802 353.977 522.879Z"/><path fill="#4B311D" d="M447.495 306.81C452.591 306.147 465.395 306.842 470.623 307.279C512.252 311.145 552.23 325.467 586.845 348.914C639.455 384.313 675.472 439.526 686.669 501.943C697.833 561.031 685.148 625.971 651.093 675.79C646.087 676.118 641.383 675.982 636.378 675.9C664.043 637.64 678.754 591.537 678.362 544.324C678.334 484.34 654.23 426.879 611.457 384.829C571.335 345.003 513.67 319.392 456.859 319.534C406.228 319.602 364.868 329.676 322.668 358.547C272.712 392.244 238.376 444.588 227.364 503.835C215.667 566.854 229.301 623.569 265.348 675.979L250.939 675.851C227.379 645.225 214.326 596.313 211.822 558.329C208.198 495.889 229.544 434.568 271.157 387.877C306.299 347.744 354.025 320.733 406.521 311.269C420.421 308.7 433.458 307.736 447.495 306.81Z"/><path fill="#4B311D" d="M581.661 587.172C588.553 589.872 594.985 594.78 600.834 599.238C594.506 607.704 591.146 611.249 590.744 621.756C603.611 627.942 617.86 621.007 628.317 631.667C636.373 639.88 634.511 664.67 633.975 675.947C616.165 674.97 591.457 675.906 573.007 676.019C566.857 676.012 560.708 675.928 554.56 675.767L554.526 657.2C560.983 657.432 602.074 658.728 604.166 654.918C600.719 651.729 590.492 652.399 585.879 652.414C577.459 652.442 570.305 653.181 561.943 651.199C560.625 645.455 560.714 634.26 561.589 628.155C564.214 609.852 567.447 598.692 581.661 587.172Z"/><path fill="#E0AD5B" d="M565.662 627.244C575.311 626.937 588.606 626.594 597.926 627.916C594.36 632.908 592.212 636.173 589.138 641.498L586.183 648.606L564.706 648.585C564.466 641.354 565.014 634.432 565.662 627.244Z"/><path fill="#4B311D" d="M569.808 630.609L583.008 630.603C582.945 634.607 583.176 639.293 583.274 643.347C579.055 643.524 574.062 643.402 569.782 643.408C569.636 639.19 569.754 634.839 569.808 630.609Z"/><path fill="#AE5048" d="M572.649 634.403C574.926 634.359 575.799 634.179 577.939 635.06C579.456 636.581 579.311 637.356 579.614 639.635C577.283 639.586 576.956 639.675 574.847 638.838C573.192 637.32 573.244 636.699 572.649 634.403Z"/><path fill="#5E9587" d="M603.011 628.306C605.482 628.994 612.559 629.589 615.432 629.901C616.809 632.759 619.097 637.701 622.536 638.106L623.22 637.144C623.246 634.462 622 632.446 620.847 629.955C626.565 634.434 628.014 636.138 629.968 643.203C619.77 645.279 604.006 643.992 593.301 643.426C596.191 637.131 598.822 633.656 603.011 628.306Z"/><path fill="#4B311D" d="M606.259 632.719C609.96 633.017 615.228 634.914 616.175 638.949C615.275 640.393 615.654 639.924 613.706 640.636C610.109 640.814 603.411 641.878 602.801 637.306C603.528 635.068 604.565 634.368 606.259 632.719Z"/><path fill="#B9574B" d="M602.055 647.963C612.552 647.418 619.417 647.267 629.933 648.04C630.005 653.381 630.53 667.161 629.249 671.517L628.261 672.208C624.13 670.573 627.267 659.194 623.342 657.83C619.682 656.559 612.703 657.404 608.779 657.617C607.84 655.275 606.18 649.705 603.438 649.202L602.055 647.963Z"/><path fill="#E0AD5B" d="M583.153 661.078C588.371 660.789 594.491 660.91 599.793 660.903C599.364 664.461 598.682 668.382 598.14 671.958C595.382 672.456 592.404 672.553 589.59 672.732C587.827 668.449 585.563 665.005 583.153 661.078Z"/><path fill="#4B311D" d="M592.53 663.483C593.318 663.141 594.229 663.255 594.907 663.782C595.586 664.309 595.922 665.164 595.786 666.011C595.649 666.859 595.061 667.565 594.252 667.852C593.059 668.276 591.744 667.678 591.28 666.499C590.816 665.321 591.369 663.987 592.53 663.483Z"/><path fill="#5E887A" d="M581.003 591.579C584.232 592.159 587.614 594.497 590.427 596.231C586.29 599.879 586.146 598.986 580.847 598.124L580.312 598.59C580.706 601.312 581.65 602.1 583.335 604.369L579.464 611.143C577.039 607.444 575.71 605.377 572.688 602.055C575.249 597.447 577.212 595.192 581.003 591.579Z"/><path fill="#E0AD5B" d="M592.347 599.384C592.993 599.586 592.657 599.395 593.206 600.162C592.408 605.902 586.326 615.242 585.767 621.706C585.633 623.261 583.569 623.985 582.294 624.557C577.507 617.638 587.702 604.351 592.347 599.384Z"/><path fill="#E0AD5B" d="M558.012 660.667C565.235 661.795 563.656 666.858 563.019 672.737C556.188 671.094 557.499 666.385 558.012 660.667Z"/><path fill="#5E9587" d="M570.997 606.152C573.549 608.342 577.598 612.642 576.745 616.17L575.246 616.842C573.05 616.097 570.292 615.37 568.022 614.712L570.997 606.152Z"/><path fill="#D88B5A" d="M603.938 659.926C609.549 662.385 607.564 668.765 606.716 673.856C601.63 669.281 602.735 666.016 603.938 659.926Z"/><path fill="#B9574B" d="M566.542 660.495C572.687 662.178 571.407 667.575 570.836 672.518C569.218 672.502 569.196 672.32 567.888 671.409C565.776 668.216 566.385 664.322 566.542 660.495Z"/><path fill="#AEC39F" d="M610.934 661.01C617.291 662.449 615.812 667.431 615.254 672.551C609.665 672.799 610.776 664.44 610.934 661.01Z"/><path fill="#D88B5A" d="M619.303 661.147C624.255 663.56 622.702 669.2 621.808 673.497C617.04 669.758 618.037 666.358 619.303 661.147Z"/><path fill="#B9574B" d="M566.699 617.785C570.885 618.763 573.557 619.419 576.156 622.898C573.27 623.379 570.669 624.07 568.149 622.588C566.521 620.377 567.001 620.841 566.699 617.785Z"/><path fill="#AEC39F" d="M575.27 662.75C579.051 664.774 578.975 669.451 578.445 673.144C572.835 670.488 573.881 668.016 575.27 662.75Z"/><path fill="#9A4B3F" d="M603.438 649.202C601.421 649.227 596.127 649.507 594.691 648.36C597.167 647.689 599.472 647.913 602.055 647.963L603.438 649.202Z"/><path fill="#4B311D" d="M318.878 588.281C336.276 587.029 347.156 638.514 340.729 650.718C338.124 655.664 303.987 648.391 299.043 655.477C302.49 658.041 338.769 656.499 347.183 657.522L348.056 657.632C347.631 664.381 347.69 669.308 348.085 675.995L335.508 676.092C313.467 676.206 291.426 676.172 269.386 675.987C269.25 660.904 267.014 649.663 272.493 635.161C277.376 620.042 298.428 627.831 309.419 623.327C318.042 619.794 306.273 603.992 303.515 598.764C307.573 595.198 314.195 591.249 318.878 588.281Z"/><path fill="#E0AD5B" d="M327.437 626.294C342.098 626.915 339.144 637.01 338.639 648.515L317.153 648.618C313.037 640.558 309.844 635.288 304.607 627.939L327.437 626.294Z"/><path fill="#4B311D" d="M320.1 630.574L333.523 630.638L333.577 643.49L320.071 643.467L320.1 630.574Z"/><path fill="#AE5048" d="M323.092 634.987C325.436 634.854 326.326 634.643 328.565 635.419C330.195 636.817 330.132 637.373 330.695 639.583C328.376 639.683 328.018 639.75 325.796 639.251C324.026 638.074 323.869 636.999 323.092 634.987Z"/><path fill="#5E9587" d="M287.927 629.499C291.755 629.181 295.589 628.948 299.428 628.801C304.376 633.706 306.296 637.061 309.126 643.347C302.969 643.598 278.153 645.808 273.972 642.986C273.574 640.757 274.077 640.471 274.889 638.15C275.863 638.695 277.202 639.342 277.99 640.054L279.823 639.981C283.441 638.205 285.853 633.066 287.927 629.499Z"/><path fill="#4B311D" d="M291.799 632.721C295.632 632.838 300.93 634.924 301.366 639.194C299.923 640.581 300.222 640.13 297.651 640.337L285.94 640.125C288.044 636.537 288.85 635.598 291.799 632.721Z"/><path fill="#AE5048" d="M275.537 647.656C285.194 647.273 300.739 646.988 309.926 647.741L310.225 648.131C306.705 649.186 300.671 649.706 296.766 650.297C296.034 653.831 296.077 655.423 293.117 657.5L277.526 657.607C277.402 661.193 277.469 668.407 275.496 671.172L274.64 670.922C272.011 666.569 270.402 650.221 275.537 647.656Z"/><path fill="#E0AD5B" d="M303.44 660.378C306.343 660.326 315.661 660.046 318.129 661.088L318.571 662.338C317.912 664.839 315.774 667.152 314.324 669.496C312.138 674.206 306.689 672.725 302.581 672.001C302.512 667.708 302.498 664.563 303.44 660.378Z"/><path fill="#4B311D" d="M305.596 663.055C307.881 663.153 309.506 662.963 311.408 664.142C312.697 665.794 312.462 666.637 312.508 668.874C310.34 668.862 309.187 669.071 307.308 667.999C305.858 666.377 305.924 665.229 305.596 663.055Z"/><path fill="#E0AD5B" d="M308.961 599.504C316.008 601.303 322.186 615.665 322.331 622.475C320.397 622.755 319.919 623.01 318.291 622.164C316.662 619.616 317.033 615.989 315.691 613.021C313.638 608.484 310.073 604.33 308.961 599.504Z"/><path fill="#5E887A" d="M324.503 594.214L329.897 601.471L323.382 611.141L319.019 604.079C321.04 602.689 322.429 602.017 323.615 599.889C323.97 597.786 323.78 597.651 322.767 595.646L324.503 594.214Z"/><path fill="#5E887A" d="M331.52 606.665C333.783 608.247 334.473 612.291 335.131 614.916L329.154 617.171C328.017 617.655 327.979 617.553 326.718 617.501L326.171 616.522C326.606 613.025 329.442 609.448 331.52 606.665Z"/><path fill="#E0AD5B" d="M339.755 660.488C346.777 661.651 345.155 666.706 344.648 672.385C337.365 671.711 339.011 666.016 339.755 660.488Z"/><path fill="#B9574B" d="M331.919 659.863C337.89 661.704 336.427 668 336.117 672.998C330.386 672.122 331.716 664.1 331.919 659.863Z"/><path fill="#AEC39F" d="M287.566 660.472C288.592 660.747 289.012 660.978 289.969 661.402C292.736 664.551 291.979 668.961 291.876 673.215C285.628 671.979 287.233 665.39 287.566 660.472Z"/><path fill="#B9574B" d="M294.873 660.407C300.579 661.87 299.31 668.226 299.132 672.913C292.766 670.652 294.267 666.058 294.873 660.407Z"/><path fill="#5E9587" d="M322.767 595.646C320.43 597.575 317.647 600.682 314.801 598.094C314.542 592.294 320.247 591.581 324.503 594.214L322.767 595.646Z"/><path fill="#B9574B" d="M280.199 661.404C286.392 663.563 284.999 667.543 284.131 673.005C278.865 670.419 279.961 666.676 280.199 661.404Z"/><path fill="#AEC39F" d="M324.679 661.561C329.916 663.632 328.693 668.4 328.429 673.208C322.819 670.116 324.059 667.448 324.679 661.561Z"/><path fill="#5E887A" d="M274.889 638.15C275.97 636.054 276.397 634.73 278.308 633.376L279.178 633.613C279.751 635.826 278.756 637.777 277.99 640.054C277.202 639.342 275.863 638.695 274.889 638.15Z"/><path fill="#E0AD5B" d="M334.607 618.647C336.009 620.228 335.651 619.347 335.889 621.306C334.677 622.756 333.353 622.799 331.442 623.244C330.456 622.636 330.862 623.025 330.376 621.921C331.236 620.273 332.911 619.622 334.607 618.647Z"/><path fill="#4B311D" d="M243.723 512.845C241.558 512.352 240 512.272 238.464 510.751C236.67 507.139 237.321 504.159 241.174 502.322C247.546 499.282 254.868 501.716 260.986 498.175C267.9 494.875 286.924 496.559 294.013 498.125C296.274 509.383 297.513 535.747 293.32 546.943C290.382 554.789 261.696 542.992 259.899 553.9C263.896 559.048 288.868 557.884 295.404 557.569C295.559 563.5 295.593 569.434 295.506 575.366C284.742 576.651 276.805 576.069 266.41 575.66C244.312 574.791 230.365 557.935 244.808 538.291C253.193 526.885 273.594 533.314 277.681 527.571C275.668 519.769 235.316 529.883 237.973 516.714C239.255 514.919 240.312 514.33 242.611 513.896L243.723 512.845Z"/><path fill="#E6DABD" d="M243.723 512.845C246.44 512.527 248.695 512.021 251.303 512.714L251.91 513.44C249.993 515.302 245.079 514.389 242.611 513.896L243.723 512.845Z"/><path fill="#D88B5A" d="M258.713 515.776L258.525 515.171C255.066 504.413 246.424 510.662 242.567 508.48L242.274 507.31C243.282 505.837 246.038 505.193 247.729 504.959C258.827 503.425 279.159 497.428 289.45 501.329C292.707 504.09 292.054 508.004 292.029 511.971L285.331 518.76C278.722 521.596 252.387 521.572 245.49 519.755L245.349 519.179C249.236 517.507 253.379 517.862 258.106 516.018L258.713 515.776Z"/><path fill="#E59E6F" d="M282.759 509.706C285.626 513.362 285.344 514.168 285.331 518.76C278.722 521.596 252.387 521.572 245.49 519.755L245.349 519.179C249.236 517.507 253.379 517.862 258.106 516.018L258.713 515.776C262.185 515.033 271.651 514.849 275.744 514.683C278.436 513.908 280.709 511.583 282.759 509.706Z"/><path fill="#4B311D" d="M275.744 514.683C272.243 513.886 266.164 512.187 267.425 507.336C267.88 505.583 269.752 504.219 271.36 503.592C273.629 502.688 276.169 502.75 278.392 503.764C281.216 505.085 281.799 507.016 282.759 509.706C280.709 511.583 278.436 513.908 275.744 514.683Z"/><path fill="#E0AD5B" d="M257.471 534.368C264.42 534.863 263.652 540.034 263.837 545.622C256.714 548.41 257.163 548.484 255.669 556.083C253.248 557.466 250.434 559.38 248.047 560.918C247.236 561.44 246.994 561.463 246.084 561.813C239.826 559.071 243.208 546.496 246.881 542.323C250.623 538.071 252.436 537.025 257.471 534.368Z"/><path fill="#4B311D" d="M247.379 546.94C247.683 546.972 247.986 547.01 248.288 547.055C250.502 547.394 251.49 547.784 252.756 549.515C253.298 551.742 252.91 552.122 251.948 554.37C249.433 554.49 248.69 554.535 246.888 552.681C246.239 550.498 246.821 549.182 247.379 546.94Z"/><path fill="#4B311D" d="M254.196 538.622C255.2 537.946 256.495 537.882 257.561 538.453C258.627 539.025 259.289 540.139 259.282 541.349C259.276 542.558 258.6 543.665 257.528 544.225C255.992 545.026 254.098 544.488 253.213 542.999C252.327 541.51 252.759 539.589 254.196 538.622Z"/><path fill="#E0AD5B" d="M279.585 532.882C283.551 532.622 288.051 533.073 292.059 533.352C292.035 547.118 289.063 546.998 276.841 545.03C275.596 544.295 276.045 544.791 275.422 543.513C277.751 541.201 284.634 543.32 286.632 539.646C284.904 536.833 279.493 536.836 275.643 535.371L275.352 534.619C276.766 533.418 277.728 533.359 279.585 532.882Z"/><path fill="#5E9587" d="M264.74 560.939C264.549 563.405 264.133 565.068 265.203 567.234C266.874 568.68 266.185 568.5 268.082 568.666C272.152 566.481 272.649 561.968 275.293 561.046C277.038 563.46 276.717 569.174 276.665 572.12C271.786 572.225 263.127 572.599 258.705 571.29L258.281 570.714C258.937 569.289 259.621 567.877 260.334 566.479L260.54 563.922C262.094 561.673 261.946 562.229 264.74 560.939Z"/><path fill="#AE5048" d="M291.22 518.584L291.498 518.84C292.263 520.67 291.991 526.275 291.981 528.595C287.943 528.9 286.349 529.105 282.408 528.457C281.735 527.786 281.505 527.422 280.933 526.663C281.709 523.99 288.119 520.831 291.22 518.584Z"/><path fill="#5E887A" d="M256.556 559.054C259.469 560.001 261.669 560.898 264.74 560.939C261.946 562.229 262.094 561.673 260.54 563.922L260.334 566.479C259.498 564.872 260.107 565.421 258.488 564.728C254.719 565.367 255.42 568.803 250.466 568.371C248.829 567.179 249.292 567.936 248.81 566.177C249.61 563.995 254.446 560.709 256.556 559.054Z"/><path fill="#5E887A" d="M287.521 560.878C293.553 562.539 292.243 567.57 291.838 572.548C285.587 571.346 287.049 565.909 287.521 560.878Z"/><path fill="#AE5048" d="M280.653 560.745C285.361 562.67 284.19 568.666 283.839 572.852C279.028 570.391 280.163 565.25 280.653 560.745Z"/><path fill="#AE5048" d="M267.301 533.947C272.634 535.186 271.049 541.34 270.451 545.328C269.575 545.414 269.832 545.275 268.75 544.582C266.666 541.324 267.128 537.721 267.301 533.947Z"/><path fill="#4B311D" d="M632.906 501.299C642.673 500.987 653.518 503.153 661.041 510.019C661.994 510.889 661.751 511.371 661.639 512.436C654.099 517.507 640.077 511.038 632.639 524.303C623.482 540.634 632.432 560.16 651.883 560.538C654.619 560.592 659.777 560.759 660.48 563.981C659.809 565.883 658.467 566.557 656.796 567.809C652.49 570.237 648.913 571.948 644.046 573.087C634.682 575.326 624.811 573.694 616.666 568.561C608.558 563.351 602.838 555.148 600.751 545.739C596.657 526.868 606.834 508.659 625.597 502.984C627.92 502.281 630.526 501.798 632.906 501.299Z"/><path fill="#E0AD5B" d="M632.316 505.822C639.485 504.755 644.644 506.326 651.149 509.079C649.99 509.36 648.834 509.66 647.684 509.978C639.344 512.296 632.686 516.487 628.393 524.227C624.699 530.836 623.81 538.65 625.925 545.92C628.088 553.281 633.649 559.672 640.834 562.712C643.844 563.986 646.792 564.124 649.984 565.893L649.936 566.643L647.403 567.708C637.784 570.974 627.597 570.366 618.868 564.938C611.69 560.503 606.629 553.335 604.852 545.087C602.994 536.387 604.673 527.306 609.518 519.845C615.292 511.051 622.433 507.817 632.316 505.822Z"/><path fill="#4B311D" d="M626.054 693.283L638.945 693.128C645.557 715.189 656.698 745.199 664.606 767.267C658.886 767.091 652.685 767.198 646.927 767.194C645.71 763.916 644.577 760.607 643.526 757.271L623.188 757.069L627.735 744.741L639.394 744.406C636.721 736.659 633.984 728.934 631.185 721.232C628.089 730.029 619.244 760.538 614.765 766.423C612.888 767.649 611.149 767.431 608.837 767.517C607.822 758.687 628.1 718.684 629.056 698.913C620.963 711.181 608.605 750.976 603.282 766.922C600.675 766.799 598.011 766.855 595.397 766.869C597.277 760.265 600.503 752.158 602.733 745.527C608.569 728.173 615.226 710.92 621.05 693.576L626.054 693.283Z"/><path fill="#4B311D" d="M334.01 693.244C340.115 693.187 345.55 693.18 351.642 693.477C360.884 717.895 368.804 742.648 377.59 767.208C371.738 767.112 365.764 767.153 359.899 767.132C358.693 763.774 357.779 760.483 356.798 757.062L336.278 757.065C337.365 753.382 339.409 748.53 340.836 744.854L352.556 744.761C349.59 736.752 346.796 728.68 344.174 720.552C339.366 733.87 333.773 755.883 327.168 767.608C318.503 766.761 323.492 761.828 324.526 756.492C326.831 744.596 343.021 712.007 341.209 701.511L340.535 701.417C335.082 708.082 319.933 756.522 316.348 766.999C313.637 767.007 310.926 767.04 308.216 767.099L324.868 719.128C327.003 712.905 331.522 698.555 334.01 693.244Z"/><path fill="#4B311D" d="M615.056 420.397C618.954 422.264 621.553 432.201 622.877 436.219C626.05 434.35 635.361 428.256 638.318 431.621C638.7 435.92 634.769 442.585 632.759 446.657C636.297 447.194 648.148 448.899 647.274 453.548C644.434 456.91 637.511 458.8 633.204 460.335C636.287 466.771 638.115 470.27 639.436 477.409C632.998 475.767 628.337 473.205 622.334 470.445C620.459 476.877 618.944 480.733 616.343 486.769C612.069 482.734 610.358 475.88 608.971 470.393C605.69 472.296 596.675 478.157 593.631 475.001C592.998 470.789 596.619 464.647 598.548 460.668C594.757 459.47 584.707 457.182 585.029 452.342C587.598 448.939 594.787 447.564 598.956 446.857C595.204 440.175 593.449 436.685 592.083 429.212C599.379 430.945 602.011 432.713 608.583 436.266C610.482 430.511 612.005 425.646 615.056 420.397Z"/><path fill="#E0AD5B" d="M612.911 438.497C618.198 437.468 623.627 439.386 627.095 443.507C630.564 447.627 631.527 453.305 629.611 458.339C627.696 463.373 623.202 466.974 617.872 467.746C609.901 468.901 602.464 463.485 601.117 455.543C599.77 447.602 605.005 440.036 612.911 438.497Z"/><path fill="#4B311D" d="M613.514 442.398C619.576 441.125 625.511 445.043 626.724 451.118C627.936 457.192 623.959 463.089 617.873 464.24C611.873 465.376 606.077 461.466 604.882 455.477C603.687 449.488 607.538 443.653 613.514 442.398Z"/><path fill="#E0AD5B" d="M633.22 450.924C635.913 451.035 639.569 451.241 640.404 454.139C638.392 454.674 637.451 455.099 635.42 454.766C633.907 453.787 633.837 452.763 633.22 450.924Z"/><path fill="#E0AD5B" d="M628.256 465.371C632.02 466.191 632.538 468.206 633.03 471.702C629.245 469.95 628.289 469.566 628.256 465.371Z"/><path fill="#E0AD5B" d="M631.72 435.696C632.627 436.097 632.206 435.863 632.89 436.777C632.585 438.787 631.147 440.18 629.832 441.841C628.888 440.641 628.922 440.732 628.494 439.271C629.197 437.335 629.978 437.156 631.72 435.696Z"/><path fill="#4B311D" d="M288.133 418.232C293.41 422.143 294.589 429.633 296.254 435.83C299.263 434.026 308.781 427.26 311.589 431C312.003 435.101 308.646 440.673 306.736 444.495C310.433 445.794 320.121 448.234 320.727 452.313C318.685 455.588 310.497 457.857 306.65 459.306C309.067 465.771 311.379 469.954 313.228 476.793C306.12 474.631 302.463 472.74 296.123 469.075C294.408 474.054 292.835 479.082 291.407 484.151L290.411 485.466L289.408 485.482C286.16 483.249 284.021 473.256 282.961 469.139C279.554 470.909 271.082 476.529 267.861 473.754C266.935 469.802 270.291 463.256 271.919 459.326C268.258 458.213 257.696 456.156 258.303 451.409C261.093 448.107 267.86 446.438 272.131 445.003C270.313 441.241 265.696 433.861 268.308 430.217C272.175 429.212 278.923 433.462 282.527 435.382C284.587 429.839 286.354 423.899 288.133 418.232Z"/><path fill="#E0AD5B" d="M285.572 437.906C290.721 436.527 296.214 438.031 299.943 441.84C303.673 445.649 305.06 451.172 303.574 456.292C302.087 461.411 297.957 465.333 292.768 466.552C284.914 468.396 277.033 463.597 275.068 455.772C273.102 447.947 277.779 439.993 285.572 437.906Z"/><path fill="#4B311D" d="M286.199 441.856C290.001 440.726 294.116 441.728 296.974 444.479C299.831 447.229 300.988 451.304 300.003 455.146C299.019 458.988 296.044 462.004 292.216 463.042C286.397 464.619 280.391 461.222 278.743 455.421C277.096 449.621 280.419 443.574 286.199 441.856Z"/><path fill="#E0AD5B" d="M307.451 449.308C309.823 449.974 312.313 450.407 314.16 451.918L314.091 453.079C312.06 453.543 310.65 454.13 308.747 453.462C307.357 451.68 307.789 451.926 307.451 449.308Z"/><path fill="#E0AD5B" d="M266.342 450.508C268.696 450.45 269.499 450.416 271.203 451.67C271.26 453.313 271.219 452.815 269.982 454.482C267.897 454.018 267.176 453.87 265.225 453.064L264.876 452.058L266.342 450.508Z"/><path fill="#E0AD5B" d="M271.421 434.621C275.408 435.739 276.063 436.307 277.909 440.052C273.457 439.899 273.056 438.3 271.421 434.621Z"/><path fill="#E0AD5B" d="M301.763 464.396C305.336 464.975 306.1 467.28 306.956 470.389C303.269 469.346 302.597 467.899 301.763 464.396Z"/><path fill="#4B311D" d="M492.733 333.18L507.062 332.707L507.288 340.357C514.958 340.246 528.267 339.095 534.379 343.486C537.997 346.085 543.966 351.463 544.866 356.109C543.455 360.876 538.436 357.16 534.475 359.354C533.599 360.945 533.833 360.321 533.972 362.352C537.398 365.538 542.01 362.711 544.458 367.625C544.384 371.144 542.909 372.54 540.881 375.489C535.012 380.359 527.404 380.165 520.144 380.42C511.192 380.735 512.911 374.215 507.523 368.837C506.535 373.455 506.23 375.462 505.98 380.167L492.866 380.153L492.733 333.18Z"/><path fill="#AE5048" d="M502.214 367.624C502.442 370.74 503.04 373.567 500.49 375.687L498.921 375.484C494.835 371.253 494.631 337.929 500.453 336.321C502.897 337.791 503.266 341.01 503.773 343.564C513.649 344.094 536.312 341.516 539.26 354.866C534.638 357.042 530.521 350.119 527.24 348.778C521.083 346.262 510.208 347.244 503.662 347.621C503.576 352.208 503.462 356.795 503.322 361.38C502.726 363.812 502.33 365.09 502.214 367.624Z"/><path fill="#AE5048" d="M503.322 361.38C512.231 361.97 520.387 362.522 529.355 362.22C529.24 364.858 529.178 367.766 528.99 370.374C526.698 372.297 526.019 372.785 525.446 375.743C525.433 363.934 509.952 364.116 502.214 367.624C502.33 365.09 502.726 363.812 503.322 361.38Z"/><path fill="#B9574B" d="M528.99 370.374C531.936 368.715 534.888 366.326 538.22 367.828C540.94 373.027 530.602 378.174 525.446 375.743C526.019 372.785 526.698 372.297 528.99 370.374Z"/><path fill="#E6DABD" d="M517.266 352.465C514.858 354.357 511.848 357.163 508.992 357.674C506.175 356.468 506.333 354.126 507.498 351.666C510.044 350.094 514.313 350.774 517.594 350.878L517.266 352.465Z"/><path fill="#5E887A" d="M516.677 369.818C518.926 370.114 520.066 370.406 521.286 372.373C521.618 374.552 521.35 374.819 520.473 376.956C518.458 376.088 517.082 375.752 515.781 374.026C515.491 371.659 515.623 372.323 516.677 369.818Z"/><path fill="#E6DABD" d="M522.469 351.533C525.532 352.359 528.624 353.596 528.575 357.326C526.399 358.245 525.366 356.561 524.102 354.983L522.065 352.458L522.469 351.533Z"/><path fill="#DFCDB1" d="M517.594 350.878C519.082 351.032 521.059 351.167 522.469 351.533L522.065 352.458C519.812 352.022 519.589 352.122 517.266 352.465L517.594 350.878Z"/><path fill="#4B311D" d="M394.926 332.954C399.991 333.011 403.811 333.015 408.856 333.639C409.196 348.512 408.963 365.397 408.789 380.297C404.477 380.423 398.695 381.15 395.821 377.207C394.22 375.012 395.322 372.538 393.598 370.372C389.117 370.776 393.104 382.038 370.221 380.067C365.561 379.164 355.653 372.569 357.422 366.916C360.107 363.277 362.823 364.277 367.522 363.393C368.833 362.509 369.439 359.797 369.999 358.138C365.156 358.283 362.109 358.3 357.22 357.956C363.617 338.377 376.566 339.972 394.266 339.735C394.613 337.802 394.759 334.976 394.926 332.954ZM386.536 350.975C382.748 350.923 371.309 351.294 372.654 357.664C376.868 356.899 378.601 351.223 385.959 352.448C387.982 354.948 389.646 357.385 393.072 357.096C394.944 355.94 394.324 356.722 395.063 354.72C394.661 352.765 394.699 352.868 393.277 351.452C391.017 350.388 389.089 350.801 386.536 350.975Z"/><path fill="#AE5048" d="M398.352 344.046C398.563 340.104 398.313 339.061 401.758 336.665C406.928 336.961 405.45 367.231 405.103 372.361C404.898 375.394 403.566 377.592 400.299 376.496C398.198 373.779 398.638 370.345 398.641 366.876C391.907 366.313 377.293 363.227 376.427 372.905C374.741 371.498 373.314 371.233 371.219 370.563C372.557 367.273 371.245 362.562 374.717 361.772C387.799 358.794 401.053 371.154 398.193 347.653C391.32 347.332 382.548 346.575 375.993 347.836C373.001 350.494 368.076 355.749 363.768 354.124C362.123 350.795 368.252 347.609 370.845 346.479C379.338 342.779 389.308 343.492 398.352 344.046Z"/><path fill="#B9574B" d="M367.466 376.047C364.065 373.806 362.126 372.322 363.604 368.156C365.225 366.805 364.324 367.14 366.373 367.046C368.076 367.859 367.987 367.866 369.238 369.331L371.219 370.563C373.314 371.233 374.741 371.498 376.427 372.905L376.43 375.194C374.189 377.359 370.433 376.593 367.466 376.047Z"/><path fill="#AE5048" d="M367.466 376.047C364.065 373.806 362.126 372.322 363.604 368.156C365.225 366.805 364.324 367.14 366.373 367.046C368.076 367.859 367.987 367.866 369.238 369.331C366.303 371.788 366.774 372.241 367.466 376.047Z"/><path fill="#5E887A" d="M381.517 369.851C383.219 369.039 385.256 369.759 386.071 371.459C386.885 373.16 386.169 375.198 384.47 376.015C382.767 376.834 380.722 376.116 379.906 374.412C379.09 372.707 379.812 370.664 381.517 369.851Z"/><path fill="#E6DABD" fill-opacity="0.0078431377" d="M385.959 352.448C378.601 351.223 376.868 356.899 372.654 357.664C371.309 351.294 382.748 350.923 386.536 350.975L385.959 352.448Z"/><path fill="#4B311D" d="M621.912 588.095C628.838 588.057 636.344 587.703 643.144 588.499C647.229 592.931 651.378 597.912 654.606 603.009C654.707 606.404 654.635 610.136 654.642 613.562C650.449 613.598 647.114 613.782 642.932 614.128C647.034 615.326 651.622 615.682 652.239 620.488C649.18 626.917 635.145 625.821 629.254 625.442C628.064 625.417 624.868 624.849 623.538 624.65C623.076 622.596 622.765 619 620.83 618.242C619.065 619.318 618.375 620.775 617.225 622.537C609.262 622.724 600.553 621.454 592.735 620.017C596.678 610.174 604.559 597.217 612.78 590.428C615.625 588.078 618.438 588.192 621.912 588.095ZM636.892 598.161C629.047 595.777 617.12 594.543 621.929 606.787C629.622 610.054 641.273 609.893 636.892 598.161Z"/><path fill="#B9574B" d="M614.974 592.491C624.537 591.942 632.011 591.607 641.533 592.346L646.067 598.061C648.369 600.696 650.734 603.326 651.202 606.939L650.679 608.207L649.673 608.484L647.282 606.522L646.346 606.706C645.78 609.365 646.311 608.79 644.624 610.325C641.393 611.083 635.848 611.043 635.952 615.224C638.517 618.729 644.742 618.766 646.165 620.821C643.308 623.203 631.984 622.195 627.918 621.988C626.12 619.431 626.822 616.781 626.204 616.123C622.762 612.455 620.321 613.95 616.502 609.28C614.447 605.391 614.915 597.073 614.974 592.491ZM636.892 598.161C629.047 595.777 617.12 594.543 621.929 606.787C629.622 610.054 641.273 609.893 636.892 598.161Z"/><path fill="#AE5048" d="M614.974 592.491C624.537 591.942 632.011 591.607 641.533 592.346C639.342 594.613 638.672 595.556 636.892 598.161C641.273 609.893 629.622 610.054 621.929 606.787C619.767 607.101 617.761 607.289 616.502 609.28C614.447 605.391 614.915 597.073 614.974 592.491ZM636.892 598.161C629.047 595.777 617.12 594.543 621.929 606.787C629.622 610.054 641.273 609.893 636.892 598.161Z"/><path fill="#4B311D" d="M621.929 606.787C617.12 594.543 629.047 595.777 636.892 598.161C641.273 609.893 629.622 610.054 621.929 606.787ZM633.175 603.255L633.326 601.621C630.962 599.36 627.669 600.058 624.534 600.331C626.589 603.854 629.46 605.061 633.175 603.255Z"/><path fill="#AE5048" d="M646.067 598.061C648.369 600.696 650.734 603.326 651.202 606.939L650.679 608.207L649.673 608.484L647.282 606.522L646.346 606.706C645.78 609.365 646.311 608.79 644.624 610.325C641.393 611.083 635.848 611.043 635.952 615.224C638.517 618.729 644.742 618.766 646.165 620.821C643.308 623.203 631.984 622.195 627.918 621.988C629.996 621.692 630.252 621.779 631.659 620.381C632.689 618.228 632.321 615.68 632.25 613.191C638.669 608.571 642.737 605.409 646.067 598.061Z"/><path fill="#AE5048" d="M603.094 609.225C604.754 606.559 608.424 599.915 610.853 598.669C611.822 599.91 611.443 600.358 611.453 602.386L611.515 603.153C611.989 608.533 615.59 614.792 614.095 617.64C611.558 619.379 603.007 617.736 599.791 617.115C599.266 617.015 598.744 616.905 598.223 616.786C599.367 614.979 601.9 610.729 603.094 609.225Z"/><path fill="#B9574B" d="M603.094 609.225C604.754 606.559 608.424 599.915 610.853 598.669C611.822 599.91 611.443 600.358 611.453 602.386C611.229 606.068 610.611 611.143 606.811 612.891C604.795 612.414 603.791 611.254 603.094 609.225Z"/><path fill="#4B311D" d="M261.397 588.514C269.171 588.3 282.853 587.685 290.311 589.3C292.844 592.154 312.329 616.624 308.342 619.837C306.065 621.671 290.997 622.187 286.613 622.196C285.394 620.613 284.129 618.471 282.334 617.941C280.31 619.33 280.54 622.981 280.407 625.347C273.588 625.504 250.234 628.125 250.385 618.458C251.17 617.347 250.985 617.345 252.066 616.681L260.318 614.494L253.634 613.819C251.119 613.716 250.783 614.123 248.986 612.806C247.689 610.087 248.453 606.142 248.662 602.866C252.26 597.596 256.419 592.554 261.397 588.514ZM277.937 608.628C288.806 600.24 279.346 595.702 269.971 595.636C260.574 602.841 265.469 607.66 275.426 608.471C276.262 608.543 277.099 608.595 277.937 608.628Z"/><path fill="#AE5048" d="M261.829 592.473C270.25 591.997 279.531 592.22 287.937 592.464C287.985 602.012 288.462 604.296 283.641 612.699C272.361 615.504 282.319 621.593 267.51 622.107C263.033 621.816 259.043 621.692 254.657 620.635C258.324 619.684 266.599 617.754 266.635 612.876C262.713 607.658 240.745 616.447 261.829 592.473ZM277.937 608.628C288.806 600.24 279.346 595.702 269.971 595.636C260.574 602.841 265.469 607.66 275.426 608.471C276.262 608.543 277.099 608.595 277.937 608.628Z"/><path fill="#4B311D" d="M269.971 595.636C279.346 595.702 288.806 600.24 277.937 608.628C277.099 608.595 276.262 608.543 275.426 608.471C265.469 607.66 260.574 602.841 269.971 595.636ZM277.005 604.8C278.152 602.469 278.225 603.201 277.827 601.094C275.968 599.305 273.288 599.581 270.703 599.597C269.74 601.942 269.705 601.07 270.32 603.175C272.162 604.934 274.524 604.839 277.005 604.8Z"/><path fill="#B9574B" d="M291.983 596.494C294.713 600.705 297.398 604.945 300.037 609.214L305.084 616.849C300.387 617.519 293.577 618.988 289.202 617.707C287.587 616.282 287.991 617.138 287.795 615.13L289.112 612.478C291.905 607.821 291.577 602.037 291.983 596.494Z"/><path fill="#AE5048" d="M291.983 596.494C294.713 600.705 297.398 604.945 300.037 609.214C296.407 611.013 293.033 611.489 289.112 612.478C291.905 607.821 291.577 602.037 291.983 596.494Z"/><path fill="#4B311D" d="M534.639 693.29C550.344 693.091 575.683 690.048 586.69 700.787C592.343 706.401 595.573 714.005 595.689 721.972C595.818 729.743 592.814 737.239 587.355 742.771C578.162 752.092 565.671 750.926 553.456 751.051L553.409 767.045L545.59 766.799C545.548 759.161 545.556 751.523 545.616 743.885C557.336 744.092 566.969 744.78 578.075 740.41C589.946 733.986 590.983 716.122 582.1 707.26C572.946 698.125 553.559 700.047 541.493 700.286L541.537 767.157L533.769 767.127C533.808 746.565 533.671 715.567 533.912 694.067C534.154 693.808 534.397 693.549 534.639 693.29Z"/><path fill="#4B311D" d="M449.656 324.271L450.756 325.179C451.94 327.671 451.776 329.833 451.887 332.621L458.022 334.267C461.12 330.372 463.326 327.771 466.769 324.123C465.164 328.424 463.675 332.767 462.303 337.148L466.214 340.904C470.665 338.834 472.744 337.959 477.452 336.485C474.594 339.722 469.26 343.678 468.943 347.332C470.913 350.49 476.69 351.611 480.605 353.043C476.872 354.065 472.985 353.777 470.541 355.11C469.032 356.595 469.061 358.311 468.697 360.504C471.145 362.2 473.036 362.997 473.65 365.872L473.042 366.382C470.354 366.263 468.57 365.303 466.075 364.272L462.031 368.754C463.499 372.313 464.731 376.141 465.977 379.798C463.259 377.067 460.359 373.634 457.77 370.716C455.622 371.118 454.86 371.185 452.893 372.051C451.529 373.531 451.724 375.281 451.567 377.418C451.283 378.456 451.147 378.436 450.529 379.385L449.573 379.422C448.117 377.498 448.314 374.634 448.114 371.952C444.789 369.798 439.619 374.008 436.577 375.74L436.084 375.151C436.519 372.246 437.176 371.272 438.513 368.74C429.978 362.214 435.024 366.699 427.006 366.194L426.625 365.484C427.642 363.776 429.89 362.303 431.535 361.026C431.268 359.03 430.767 356.736 430.385 354.731C427.618 354.335 425.008 354.226 422.635 352.859L422.648 352.107C425.028 350.771 427.639 350.758 430.415 350.452L431.651 344.517C427.753 341.44 424.084 338.532 420.324 335.273C425.061 336.804 429.176 338.569 433.758 340.484L438.134 336.153C436.643 332.25 434.844 328.183 433.212 324.314C436.882 327.443 439.14 330.566 441.986 334.427C444.033 333.928 445.144 333.734 447.082 332.786C448.458 331.032 448.759 327.271 449.656 324.271Z"/><path fill="#E0AD5B" d="M447.114 337.193C455.684 335.648 463.879 341.36 465.398 349.935C466.916 358.511 461.18 366.69 452.6 368.182C444.057 369.668 435.922 363.962 434.41 355.422C432.898 346.883 438.58 338.73 447.114 337.193Z"/><path fill="#4B311D" d="M447.062 341.736C450.983 340.689 455.165 341.838 458.001 344.741C460.838 347.644 461.89 351.851 460.754 355.747C459.618 359.644 456.47 362.626 452.517 363.549C446.537 364.945 440.544 361.285 439.054 355.328C437.564 349.37 441.129 343.319 447.062 341.736Z"/><path fill="#4B311D" d="M482.438 693.128C488.213 693.073 493.988 693.087 499.762 693.17C502.7 702.521 505.781 711.827 509.004 721.084C503.036 721.874 497.662 721.476 491.711 721.126C486.486 736.452 481.757 751.863 476.291 767.114L469.224 767.098C474.977 748.905 481.153 730.849 487.749 712.944C488.949 709.673 490.51 704.175 489.456 700.787L488.629 701.087C482.298 710.184 469.203 754.179 464.311 767.194L456.183 767.155C464.514 743.052 472.954 716.569 482.438 693.128Z"/><path fill="#4B311D" d="M439.796 693.511L447.552 693.535L447.512 767.235C442.205 767.014 435.975 767.151 430.6 767.147C421.489 755.939 413.011 741.76 405.025 729.414C404.792 736.149 405.559 761.385 404.607 766.21C402.744 767.526 400.613 767.335 398.547 766.625C397.435 765.013 397.802 765.199 397.672 762.891C397.665 744.556 398.396 724.637 397.988 706.585C404.669 716.335 427.295 755.029 436.329 758.007C437.191 757.896 437.733 758.034 438.363 757.375C441.631 753.953 439.894 701.835 439.796 693.511Z"/><path fill="#4B311D" d="M385.942 693.269C391.502 693.161 397.063 693.175 402.622 693.312C405.219 696.595 409.223 703.02 411.695 706.749C417.249 715.208 422.88 723.616 428.586 731.974L428.547 693.515L435.897 693.61L435.427 753.545C431.113 747.839 426.956 742.016 422.96 736.083C415.057 724.736 407.694 713.129 399.55 701.946L393.17 702.158C393.19 723.242 392.792 746.372 393.478 767.279L385.903 767.121C385.504 742.895 385.88 717.588 385.942 693.269Z"/><path fill="#4B311D" d="M552.213 703.927C562.396 703.315 575.682 703.426 582.022 713.051C584.393 716.646 585.224 721.042 584.328 725.254C583.159 730.741 580.148 734.012 575.695 737.035C567.898 741.149 554.437 740.293 545.596 740.161L545.613 704.338L552.213 703.927ZM553.387 732.979C560.679 733.12 567.582 733.916 573.82 729.613C585.857 712.698 564.534 711.309 553.393 711.144L553.387 732.979Z"/><path fill="#4B311D" d="M582.521 488.999C598.643 489.023 604.782 503.173 593.03 514.73C591.771 515.968 588.374 517.49 586.682 518.316C586.677 524.399 586.712 530.408 586.434 536.487C580.71 536.158 582.493 522.814 582.579 518.486C565.793 510.888 566.814 491.374 582.521 488.999ZM586.379 513.452C591.806 512.597 595.598 507.619 594.98 502.159C594.363 496.699 589.556 492.694 584.075 493.072C580.31 493.332 576.991 495.637 575.433 499.074C573.875 502.512 574.329 506.527 576.615 509.53C578.901 512.533 582.651 514.039 586.379 513.452Z"/><path fill="#4B311D" d="M582.971 498.087C584.843 497.454 586.91 497.876 588.384 499.191C589.858 500.507 590.512 502.512 590.097 504.444C589.681 506.375 588.26 507.935 586.376 508.527C583.505 509.43 580.441 507.853 579.508 504.992C578.575 502.13 580.12 499.05 582.971 498.087Z"/><path fill="#4B311D" d="M313.772 489.39C334.42 486.594 341.074 509.013 320.62 518.379L320.597 535.041L319.885 537.15L319.004 537.528C315.225 534.667 316.5 522.901 316.592 518.349C302.505 511.198 298.763 498.784 313.772 489.39ZM319.322 513.333C323.035 513.066 326.308 510.798 327.862 507.414C329.416 504.031 329.003 500.07 326.786 497.079C324.569 494.088 320.899 492.543 317.211 493.046C311.753 493.791 307.873 498.733 308.443 504.212C309.013 509.69 313.828 513.728 319.322 513.333Z"/><path fill="#4B311D" d="M316.317 498.136C319.106 496.939 322.34 498.201 323.583 500.97C324.825 503.739 323.618 506.994 320.87 508.283C319.051 509.136 316.914 508.942 315.278 507.775C313.643 506.608 312.764 504.649 312.979 502.652C313.195 500.654 314.47 498.928 316.317 498.136Z"/><path fill="#4B311D" d="M498.273 737.522C503.578 737.393 509.395 737.564 514.743 737.629C518.108 745.887 522.38 758.601 524.826 767.222L507.919 767.157C505.963 763.679 505.124 761.027 503.817 757.299C497.479 757.072 490.473 757.228 484.082 757.246L488.699 744.664L500.466 744.759C499.689 742.544 498.951 739.813 498.273 737.522Z"/><path fill="#4B311D" d="M310.428 382.632C324.663 381.629 328.464 391.228 328.647 403.82C328.721 408.975 329.183 425.094 326.756 429.035L325.708 428.379C324.385 426.104 324.281 423.867 323.941 421.273L324.024 404.844C323.486 405.184 322.941 405.515 322.391 405.836C318.445 408.129 314.263 409.387 309.695 408.035C306.442 407.061 303.714 404.823 302.125 401.821C300.39 398.539 300.117 394.679 301.373 391.186C303.111 386.425 306.222 384.609 310.428 382.632ZM314.695 404.465C317.908 404.162 320.706 402.144 322.01 399.191C323.313 396.238 322.918 392.811 320.978 390.232C319.037 387.653 315.853 386.324 312.655 386.759C307.848 387.413 304.447 391.792 305.002 396.611C305.557 401.431 309.865 404.922 314.695 404.465Z"/><path fill="#4B311D" d="M311.771 391.768C313.191 391.069 314.879 391.203 316.171 392.116C317.463 393.03 318.152 394.576 317.967 396.148C317.781 397.719 316.752 399.064 315.283 399.652C313.129 400.515 310.677 399.521 309.733 397.4C308.788 395.28 309.688 392.792 311.771 391.768Z"/><path fill="#4B311D" d="M585.061 382.657C588.433 382.147 591.334 382.193 594.512 383.634C597.692 385.072 600.109 387.795 601.16 391.123C602.342 394.873 601.903 398.947 599.949 402.359C594.788 411.229 586.153 409.493 578.746 405.078L578.729 412.594C578.768 416.853 579.203 424.498 577.339 428.097L576.559 427.826C573.175 420.44 573.748 398.875 576.231 390.658C577.51 386.427 581.347 384.471 585.061 382.657ZM590.854 404.383C595.599 403.291 598.618 398.628 597.673 393.852C596.727 389.077 592.16 385.915 587.357 386.713C584.117 387.252 581.426 389.511 580.335 392.61C579.244 395.709 579.927 399.156 582.115 401.606C584.304 404.056 587.653 405.12 590.854 404.383Z"/><path fill="#4B311D" d="M586.905 391.747C589.003 390.674 591.575 391.493 592.666 393.582C593.757 395.672 592.959 398.25 590.879 399.359C588.774 400.481 586.158 399.672 585.054 397.557C583.95 395.442 584.781 392.833 586.905 391.747Z"/><path fill="#4B311D" d="M260.856 693.625L268.17 693.622C268.144 704.467 266.324 714.14 271.923 724.077C290.383 734.39 290.61 711.172 290.191 699.771C290.087 696.931 290.322 693.976 293.109 692.676C294.779 692.89 295.46 693.539 296.854 694.478C297.839 695.799 297.617 698.337 297.658 700.124C297.704 703.033 297.695 705.943 297.629 708.851C297.477 715.746 296.19 724.826 290.845 729.632C284.398 735.43 271.232 734.759 265.821 727.91C259.026 719.309 259.989 703.914 260.856 693.625Z"/><path fill="#4B311D" d="M318.808 543.444C325.314 543.996 332.026 545.954 332.176 553.835C332.348 562.87 326.116 568.783 320.304 574.808C323.686 575.205 329.038 575.262 331.452 577.855L331.052 578.653C328.94 579.465 327.493 579.361 325.243 579.446C319.945 579.664 311.225 580.65 306.902 577.892C303.692 572.793 312.881 565.384 316.403 561.861C306.918 554.59 309.135 548.57 318.808 543.444ZM314.251 569.793L312.478 572.065L312.654 573.062C319.104 573.591 342.483 551.08 319.02 547.237C315.614 549.922 313.836 551.433 315.188 556.219L315.893 556.971C317.812 556.903 316.961 557.181 318.547 556.128C318.442 553.788 317.88 552.446 318.879 550.839C319.775 550.54 321.2 549.91 322.002 550.629C328.627 556.57 317.7 566.482 314.251 569.793Z"/><path fill="#4B311D" d="M579.654 543.966C590.407 542.565 598.291 552.71 586.863 561.366C591.824 567.79 596.37 572.14 600.793 579.346C596.318 579.455 591.546 579.357 587.046 579.345C582.629 579.469 577.076 580.209 573.609 577.373L573.773 576.529C576.962 574.94 579.662 575.152 583.118 575.269C574.164 564.961 561.631 553.259 579.654 543.966ZM591.746 574.633C589.594 570.764 588.173 568.995 584.965 565.866C582.155 562.503 573.963 551.16 583.685 550.706L584.958 551.563C585.353 554.536 582.956 554.483 583.776 557.118C585.485 557.581 584.646 557.648 586.348 556.675C587.271 555.102 587.69 554.03 587.237 552.122C586.903 550.659 585.955 549.411 584.636 548.697C583.22 547.916 581.559 547.888 579.968 547.799C577.602 549.914 575.061 552.054 574.977 555.492C574.761 564.315 584.469 571.703 591.746 574.633Z"/><path fill="#4B311D" d="M249.228 693.82L256.497 693.712C256.008 714.579 253.488 730.766 276.763 737.738C276.858 746.924 277.204 758.198 276.531 767.174L269.256 767.215C269.515 759.198 269.459 751.174 269.087 743.161C246.29 733.671 248.038 715.392 249.228 693.82Z"/><path fill="#4B311D" d="M301.449 693.518L309.317 693.514C309.698 716.889 312.365 732.11 288.482 743.188L288.576 766.937L281.173 767.006L281.154 737.672C305.636 730.778 301.803 715.069 301.449 693.518Z"/><path fill="#4B311D" d="M563.436 365.923C569.072 364.593 574.724 368.068 576.083 373.698C577.442 379.328 573.997 384.998 568.375 386.387C562.71 387.785 556.989 384.309 555.62 378.637C554.251 372.965 557.757 367.262 563.436 365.923ZM567.968 382.306C570.171 381.468 571.745 379.499 572.077 377.165C572.408 374.831 571.444 372.502 569.561 371.084C567.678 369.666 565.173 369.384 563.022 370.348C559.827 371.78 558.349 375.494 559.688 378.729C561.026 381.965 564.695 383.55 567.968 382.306Z"/><path fill="#4B311D" d="M565.167 372.118C566.581 371.892 568.006 372.454 568.885 373.585C569.764 374.715 569.957 376.235 569.389 377.55C568.821 378.865 567.582 379.766 566.156 379.9C564.047 380.1 562.161 378.589 561.894 376.488C561.627 374.387 563.075 372.453 565.167 372.118Z"/><path fill="#4B311D" d="M334.088 365.853C339.68 364.51 345.311 367.92 346.712 373.498C348.112 379.076 344.761 384.742 339.198 386.2C335.548 387.157 331.665 386.079 329.031 383.378C326.396 380.677 325.414 376.769 326.461 373.144C327.507 369.519 330.42 366.735 334.088 365.853ZM338.316 382.253C341.693 381.39 343.752 377.976 342.941 374.586C342.129 371.196 338.748 369.084 335.346 369.843C333.098 370.345 331.295 372.018 330.628 374.223C329.961 376.427 330.533 378.82 332.126 380.484C333.719 382.148 336.084 382.824 338.316 382.253Z"/><path fill="#4B311D" d="M335.475 372.106C337.522 371.519 339.662 372.683 340.281 374.722C340.9 376.76 339.769 378.918 337.74 379.568C336.4 379.998 334.932 379.672 333.9 378.716C332.867 377.759 332.43 376.32 332.757 374.951C333.083 373.582 334.122 372.495 335.475 372.106Z"/><path fill="#4B311D" d="M357.722 658.292C364.948 661.25 382.547 669.964 386.763 676.136C376.98 676.217 367.056 676.106 357.26 676.072C357.182 670.068 357.464 664.288 357.722 658.292Z"/><path fill="#AE5048" d="M361.094 664.655C365.105 666.496 369.955 668.63 373.133 671.744C369.953 672.039 364.51 671.928 361.161 671.962L361.094 664.655Z"/><path fill="#4B311D" d="M543.23 659.182C545.69 661.384 544.981 672.104 544.971 675.59L517.886 675.783L516.802 675.371L516.749 674.318C519.974 670.185 538.118 661.685 543.23 659.182Z"/><path fill="#B9574B" d="M539.771 665.41C541.54 667.332 542.231 668.489 540.86 670.726C537.613 672.729 534.549 672.372 530.823 672.274L529.717 671.834C530.476 669.606 537.338 666.643 539.771 665.41Z"/><path fill="#4B311D" d="M656.657 526.488C661 527.322 671.436 533.498 665.467 538.947C665.218 540.203 664.97 541.459 664.721 542.716C660.625 545.048 660.954 542.712 657.63 546.884C653.539 542.667 652.368 544.916 649.74 542.369C649.78 541.395 649.893 540.452 650.051 539.49C648.914 538.283 648.51 537.958 647.182 536.951L647.105 536.073C650.277 533.244 649.891 534.235 649.56 530.228C650.476 528.98 654.404 528.33 656.657 526.488ZM658.945 540.123C660.279 539.479 661.154 538.16 661.229 536.681C661.304 535.203 660.566 533.802 659.305 533.027C658.044 532.253 656.46 532.228 655.176 532.964C653.284 534.047 652.59 536.434 653.606 538.363C654.621 540.292 656.982 541.07 658.945 540.123Z"/><path fill="#4B311D" d="M494.426 726.277C499.476 726.004 510.518 724.63 512.847 730.103C512.735 731.351 512.819 731.392 512.239 732.476C506.879 732.606 501.642 732.783 496.279 732.592C495.624 730.68 494.999 728.257 494.426 726.277Z"/><path fill="#4B311D" d="M240.646 579.745C242.613 579.336 244.648 580.023 245.966 581.54C247.285 583.057 247.681 585.167 247.003 587.059C246.324 588.951 244.677 590.329 242.695 590.662C239.711 591.164 236.873 589.184 236.315 586.209C235.756 583.234 237.682 580.36 240.646 579.745Z"/><path fill="#4B311D" d="M661.105 579.598C663.071 579.293 665.046 580.091 666.248 581.676C667.45 583.261 667.686 585.378 666.862 587.189C666.038 589 664.287 590.213 662.303 590.348C659.411 590.544 656.877 588.427 656.556 585.547C656.235 582.666 658.241 580.043 661.105 579.598Z"/><path fill="#4B311D" d="M653.321 484.675C655.672 483.384 658.624 484.198 659.982 486.511C661.34 488.825 660.611 491.799 658.338 493.223C656.808 494.182 654.878 494.232 653.299 493.356C651.721 492.48 650.744 490.814 650.748 489.009C650.753 487.204 651.738 485.543 653.321 484.675Z"/><path fill="#4B311D" d="M247.303 483.516C249.765 482.504 252.581 483.689 253.579 486.157C254.577 488.625 253.378 491.435 250.905 492.42C248.45 493.398 245.667 492.209 244.676 489.76C243.685 487.31 244.859 484.52 247.303 483.516Z"/><path fill="#4B311D" d="M612.198 401.916C614.357 401.453 616.505 402.745 617.108 404.869C617.711 406.993 616.564 409.22 614.484 409.962C613.012 410.487 611.37 410.148 610.225 409.085C609.08 408.021 608.621 406.408 609.036 404.901C609.451 403.394 610.67 402.244 612.198 401.916Z"/><path fill="#4B311D" d="M574.594 466.506C576.748 465.996 578.921 467.272 579.525 469.401C580.129 471.53 578.949 473.758 576.848 474.454C575.405 474.932 573.817 474.58 572.711 473.537C571.605 472.493 571.161 470.928 571.554 469.459C571.948 467.991 573.115 466.857 574.594 466.506Z"/><path fill="#4B311D" d="M326.632 467.144C328.514 466.17 330.83 466.868 331.862 468.719C332.894 470.57 332.27 472.906 330.453 473.996C329.225 474.733 327.694 474.742 326.457 474.021C325.221 473.299 324.475 471.962 324.511 470.531C324.547 469.1 325.36 467.802 326.632 467.144Z"/><path fill="#4B311D" d="M288.209 402.427C289.511 401.888 291.001 402.09 292.112 402.956C293.223 403.822 293.783 405.218 293.578 406.612C293.373 408.005 292.435 409.181 291.122 409.691C289.123 410.466 286.872 409.489 286.075 407.499C285.277 405.509 286.229 403.247 288.209 402.427Z"/><path fill="#E6DABD" fill-opacity="0.011764706" d="M253.634 613.819L260.318 614.494L252.066 616.681C251.15 615.967 251.477 616.419 251.087 615.323L253.634 613.819Z"/></svg>