<?xml version="1.0" encoding="utf-8" ?><svg xmlns="http://www.w3.org/2000/svg" xmlns:xlink="http://www.w3.org/1999/xlink" width="500" height="691" viewBox="0 0 500 691"><clipPath id="cl_4"><rect width="500" height="691"/></clipPath><g clip-path="url(#cl_4)"><path fill="#212F31" transform="translate(-202 -206)" d="M443.895 254.503C448.752 251.059 454.392 249.919 460.266 250.428C474.95 251.701 496.046 248.265 509.197 254.704C511.769 253.457 515.424 252.068 518.261 252.38C532.912 253.988 560.21 251.628 572.614 259.128C578.101 256.314 581.463 256.458 587.411 257.447C629.458 264.438 619.224 269.866 624.904 303.861C632.882 307.934 639.286 311.555 642.484 320.441C644.031 324.742 644.195 330.333 644.325 334.859C644.646 345.983 643.289 421.426 640.14 427.474C638.348 430.913 635.143 432.314 631.704 433.55C631.555 443.96 632.052 454.871 632.126 465.05C632.207 476.144 629.789 486.245 634.557 496.228C635.102 497.368 635.317 502.312 635.343 503.805C635.855 529.997 634.346 556.433 630.413 582.338C629.189 590.406 625.82 593.562 624.067 600.616C622.839 605.561 623.339 613.679 622.453 619.57C618.53 645.656 618.781 679.283 600.995 700.338C574.517 727.389 504.643 729.353 468.389 730.629C462.513 730.774 456.635 730.864 450.757 730.9C412.417 730.933 322.172 729.259 295.175 701.852C279.081 685.514 275.92 641.853 273.913 619.304C273.415 613.712 273.398 607.856 272.585 602.317C271.753 596.644 267.344 591.963 266.175 585.989C261.938 564.326 260.958 539.032 260.542 516.923C260.434 511.19 260.131 504.551 261.152 498.909C261.836 495.132 263.984 491.748 264.266 487.868C264.664 482.403 264.179 476.682 264.186 471.188L264.327 433.98C260.884 432.377 257.029 430.573 255.591 426.775C252.985 419.892 251.01 346.201 251.586 333.968C251.822 328.962 252.088 322.882 254.322 318.353C258.349 310.193 263.772 307.272 272.09 304.34C275.694 279.317 268.278 263.903 300.391 257.697C308.11 256.205 309.769 255.401 317.443 258.864C327.97 251.981 359.661 253.273 373.183 252.583C374.541 252.513 377.916 254.224 379.293 254.925C381.019 253.808 383.561 252.185 385.529 251.974C399.66 250.459 416.479 250.823 430.725 250.573C433.194 250.592 436.051 250.793 438.55 250.908L443.895 254.503ZM273.519 460.984C273.525 466.057 273.434 471.402 273.752 476.443C280.837 474.611 287.858 473.027 295.118 472.06C315.484 469.348 384.579 464.234 400.964 474.126C407.311 477.957 410.749 484.901 412.432 491.89C417.809 514.211 413.293 547.832 409.144 570.009C407.3 579.871 404.394 590.188 403.755 600.182C403.582 602.898 403.374 606.854 405.955 608.445C408.168 609.81 410.948 610.47 413.514 610.786C423.903 612.066 477.308 612.443 486.714 609.955C488.318 609.53 489.652 609.065 490.957 607.998C494.319 601.676 489.758 584.125 488.42 576.54C483.427 552.853 468.709 473.976 505.217 470.528C536.709 467.553 593.343 467.433 623.227 476.978C623.245 471.584 623.392 466.384 622.742 461.023C613.064 456.665 601.343 455.379 590.864 454.177C570.631 451.858 478.134 447.752 463.779 453.29C456.761 455.998 452.289 462.325 447.797 468.01C442.293 460.083 436.575 453.054 426.308 451.774C412.724 450.079 395.478 450.525 381.661 450.844C351.254 451.304 300.97 450.785 273.519 460.984Z"/><path fill="#943F3B" transform="translate(-202 -206)" d="M359.76 598.278C367.533 597.532 375.641 597.168 383.267 595.448C386.72 594.669 390.32 593.373 392.208 590.174C399.884 577.17 402.467 512.342 398.873 496.916C398.155 493.835 396.883 488.913 394.266 486.916C382.837 478.193 316.788 479.742 300.897 481.465C296.586 481.932 276.744 486.078 274.495 484.661C274.519 484.13 274.492 483.333 274.633 482.8C274.954 481.588 275.456 481.298 276.514 480.727C290.82 472.998 375.522 470.762 391.535 475.526C396.504 477.003 401.026 479.442 403.978 483.842C416.719 502.826 407.155 552.838 403.294 574.923C401.569 584.791 395.7 601.209 401.024 610.278C402.655 613.054 406.029 614.167 409.009 614.85C417.607 616.821 474.72 616.44 484.381 615.389C487.167 615.086 490.16 614.373 492.513 612.805C496.265 610.305 497.216 606.145 497.255 601.902C497.33 593.695 494.654 584.852 493.175 576.791C488.44 550.999 482.086 521.164 487.827 495.118C489.28 488.527 491.738 482.137 497.762 478.432C515.364 467.603 596.28 474.519 618.605 479.936C620.955 480.876 621.191 480.566 622.695 482.4C622.655 484.517 622.978 483.619 621.897 485.25C618.895 486.527 614.441 484.71 611.149 483.797C603.905 482.705 596.682 481.653 589.368 481.179C573.107 480.127 513.685 478.599 502.24 486.572C498.331 489.295 497.208 495.594 496.55 499.983C493.627 519.469 495.604 575.569 504.595 592.025C513.204 596.733 517.829 596.296 527.548 597.399C528.738 597.534 533.2 597.911 534.166 598.295L545.573 598.705L547.366 658.941C547.848 674.785 548.861 698.185 546.399 713.568L533.57 715.81L527.562 716.496C529.309 710.158 530.166 703.236 528.444 696.794C526.977 691.252 523.336 686.538 518.346 683.717C510.514 679.355 496.098 680.332 487.123 680.278L451.718 680.154L415.702 680.166C406.17 680.171 391.97 679.215 383.128 681.711C365.83 686.594 364.698 702.016 368.985 716.302C366.457 716.166 365.079 716.004 362.602 715.613C358.519 714.651 354.11 715.081 350.309 713.081C346.009 705.073 349.927 638.68 350.196 625.812C350.304 620.691 350.482 604.259 350.879 598.781L359.76 598.278Z"/><path fill="#D1A35C" transform="translate(-202 -206)" d="M534.166 598.295L545.573 598.705L547.366 658.941C547.848 674.785 548.861 698.185 546.399 713.568L533.57 715.81C535.301 704.966 535.071 694.221 535.336 683.301C536.014 655.322 533.667 627.465 533.291 599.519C533.28 598.767 533.559 598.843 534.166 598.295Z"/><path fill="#D1A35C" transform="translate(-202 -206)" d="M359.76 598.278L362.235 598.6C363.466 600.868 358.936 697.126 362.602 715.613C358.519 714.651 354.11 715.081 350.309 713.081C346.009 705.073 349.927 638.68 350.196 625.812C350.304 620.691 350.482 604.259 350.879 598.781L359.76 598.278Z"/><path fill="#732623" transform="translate(-202 -206)" d="M618.605 479.936C620.955 480.876 621.191 480.566 622.695 482.4C622.655 484.517 622.978 483.619 621.897 485.25C618.895 486.527 614.441 484.71 611.149 483.797C613.861 483.972 617.515 484.259 619.041 481.808L618.605 479.936Z"/><path fill="#2D2D2E" transform="translate(-202 -206)" d="M393.256 624.051C396.723 623.888 400.215 623.814 403.698 623.83C439.396 623.999 475.469 622.376 511.081 624.895C527.204 626.035 529.734 636.396 529.872 650.394C529.934 656.742 530.437 666.278 525.777 671.149C520.593 676.415 508.973 675.216 502.188 675.164C479.433 675.033 456.763 674.625 433.963 674.767C415.621 674.743 397.031 676.068 378.734 674.865C364.55 673.493 366.474 658.39 366.549 648.462C366.706 627.526 375.166 625.302 393.256 624.051Z"/><path fill="#943F3B" transform="translate(-202 -206)" d="M395.766 629.118C414.54 628.329 434.996 629.19 453.99 628.91C469.966 629.182 486.67 628.367 502.54 629.24C523.587 630.398 523.103 633.068 524.261 651.407C525.62 672.912 518.473 670.151 500.205 669.9C479.731 670.218 460.24 669.007 438.174 669.348C427.315 669.516 387.526 670.883 375.776 668.705C370.473 667.722 370.859 638.76 375.405 634.369C380.799 629.158 387.722 629.649 395.766 629.118Z"/><path fill="#212F31" transform="translate(-202 -206)" d="M414.711 640.986C443.077 639.617 473.478 641.087 501.929 641.522C511.127 641.663 512.541 650.453 509.031 655.446C507.125 658.158 483.6 657.006 480.06 656.959C463.607 656.761 447.153 656.648 430.699 656.62C422.678 656.679 393.537 658.001 387.6 655.503C384.652 652.61 384.332 645.954 387.264 643.754C392.787 639.611 407.916 641.092 414.711 640.986Z"/><path fill="#4E837A" transform="translate(-202 -206)" d="M317.902 489.057C336.902 487.876 366.977 488.459 385.769 492.039C387.273 492.326 389.212 493.543 389.671 495.002C395.018 511.976 390.842 571.464 385.049 585.972C376.414 589.697 354.529 590.041 344.367 590.591C336.027 591.02 281.439 593.388 277.765 590.412C276.739 589.58 276.114 587.199 275.797 585.988C272.748 574.337 266.413 503.65 271.866 497.096C277.496 490.329 308.693 489.487 317.902 489.057Z"/><path fill="#212F31" transform="translate(-202 -206)" d="M318.282 500.307C327.205 499.724 371.057 498.955 376.511 503.383C378.638 505.11 379.555 509.727 379.942 512.368C381.35 521.964 379.776 568.277 374.576 574.594C370.646 579.367 346.715 579.007 339.595 579.303C331.069 579.37 287.382 580.459 282.154 578.239C276.779 571.361 274.702 516.674 278.267 506.254C279.624 502.29 313.076 500.604 318.282 500.307Z"/><path fill="#D1A35C" transform="translate(-202 -206)" d="M313.985 510.421C321.202 509.661 362.732 509.159 368.492 512.884C372.396 519.548 370.068 558.538 365.37 566.223C363.845 568.719 344.627 568.394 340.977 568.454C332.299 568.68 295.913 570.218 290.181 568.142C284.935 563.002 282.701 520.216 286.622 514.227C290.981 511.505 307.931 510.859 313.985 510.421Z"/><path fill="#4E837A" transform="translate(-202 -206)" d="M557.424 489.082C569.279 488.822 616.176 489.208 623.806 496.668C625.648 498.469 625.931 503.281 626.057 505.761C626.634 517.125 624.576 584.18 618.04 589.492C612.938 593.637 581.363 591.702 573.022 591.642C562.941 591.216 518.288 590.594 512.249 586.144C507.532 582.666 506.006 561.525 505.453 555.59C504.467 545.022 501.388 500.605 507.706 493.911C512.52 488.81 549.045 489.224 557.424 489.082Z"/><path fill="#212F31" transform="translate(-202 -206)" d="M553.443 500.321C563.135 500.073 609.447 501.145 617.184 505.503C622.444 511.977 618.592 571.804 614.027 578.08C610.091 580.306 589.03 579.785 582.991 579.825C574.079 579.854 527.96 579.439 521.984 575.885C516.655 568.88 512.306 513.741 519.386 503.566C521.491 500.54 547.856 500.499 553.443 500.321Z"/><path fill="#D1A35C" transform="translate(-202 -206)" d="M550.021 510.44C559.645 509.955 603.209 510.094 609.807 515.013C613.368 521.339 611.145 560.941 606.392 568.168C605.225 569.943 589.331 569.29 586.506 569.242C569.636 569.36 548.859 569.006 532.219 567.101C525.771 566.363 524.378 519.598 526.951 513.524C530.099 510.348 544.797 510.633 550.021 510.44Z"/><path fill="#4E837A" transform="translate(-202 -206)" d="M393.378 422.182C414.711 421.241 440.552 422.007 462.214 422.035C485.817 421.847 509.421 422.037 533.018 422.605C557.369 423.13 599.974 423.966 622.205 432.757C622.667 436.628 622.436 443.163 622.411 447.243C585.207 436.874 540.902 437.615 502.137 437.227C474.39 436.879 440.21 436.87 412.755 437.094C378.667 437.371 303.9 435.618 273.829 447.172C273.592 442.284 273.724 437.186 273.77 432.277C303.337 422.326 361.145 422.431 393.378 422.182Z"/><path fill="#D1A35C" transform="translate(-202 -206)" d="M403.661 684.852C427.623 684.537 451.588 684.539 475.549 684.858C485.487 684.975 495.37 684.811 505.329 685.298C516.01 685.82 524.081 691.059 524.416 702.69C524.584 708.524 523.656 712.496 520.815 717.556C511.309 718.565 500.58 719.161 490.991 719.894C455.251 720.958 410.404 722.997 374.966 716.978C372.664 713.077 371.413 708.645 371.335 704.116C370.97 685.096 390.222 684.954 403.661 684.852Z"/><path fill="#943F3B" transform="translate(-202 -206)" d="M291.066 447.017C300.131 445.47 326.524 442.743 335.211 442.716C366.279 442.62 614.284 435.353 622.511 453.308L622.196 455.01C620.498 455.795 605.654 452.023 602.398 451.495C576.539 447.304 550.959 447.415 524.752 447.207C504.811 447.049 482.101 444.792 462.482 448.901C457.417 449.962 451.243 456.465 448.028 460.245C439.658 450.721 432.733 446.566 419.706 446.701C378.164 447.132 332.758 445.345 291.785 451.44C290.824 450.071 291.066 448.753 291.066 447.017Z"/><path fill="#943F3B" transform="translate(-202 -206)" d="M454.989 260.124C463.247 259.695 491.912 259.84 501.036 261.936C501.624 262.072 502.538 265.366 502.527 266.01C502.44 271.191 505.193 290.907 503.016 293.89L500.731 294.108L471.1 294.168C466.82 294.168 453.354 294.854 450.945 292.445C450.44 289.613 449.463 264.717 451.417 261.421C452.095 260.278 453.563 260.366 454.989 260.124Z"/><path fill="#943F3B" transform="translate(-202 -206)" d="M424.508 260.139C427.888 260.008 433.552 259.425 435.896 261.526C437.776 266.809 437.126 287.253 436.974 293.625C423.832 294.088 410.682 294.272 397.532 294.177L384.104 294.199C383.632 285.857 384.172 277.735 384.238 269.437C384.331 257.617 396.005 260.432 404.754 260.46C411.34 260.456 417.926 260.349 424.508 260.139Z"/><path fill="#DECEA9" transform="translate(-202 -206)" d="M282.29 600.333C288.092 600.267 293.894 600.23 299.697 600.223L307.258 600.433C305.717 625.863 302.206 678.344 310.836 701.484C305.866 698.382 301.243 695.848 298.953 690.182C288.473 680.681 282.573 616.561 282.29 600.333Z"/><path fill="#943F3B" transform="translate(-202 -206)" d="M282.29 600.333C288.092 600.267 293.894 600.23 299.697 600.223C299.082 600.326 296.186 600.66 296.128 601.063C292.591 625.85 294.535 667.159 298.953 690.182C288.473 680.681 282.573 616.561 282.29 600.333Z"/><path fill="#DECEA9" transform="translate(-202 -206)" d="M600.302 600.263L614.426 600.184C613.227 618.059 607.949 677.598 597.736 688.651C595.434 693.866 590.945 696.709 586.458 699.853C594.081 674.263 590.442 627.694 589.227 600.443L600.302 600.263Z"/><path fill="#943F3B" transform="translate(-202 -206)" d="M600.302 600.263L614.426 600.184C613.227 618.059 607.949 677.598 597.736 688.651C602.514 662.109 602.434 633.894 601.348 606.942C601.259 604.755 601.396 602.171 600.302 600.263Z"/><path fill="#943F3B" transform="translate(-202 -206)" d="M518.143 262.104C524.684 261.63 560.547 263.512 565.398 265.818C568.888 269.67 568.594 290.329 568.547 296.273C551.77 295.829 535.873 294.577 518.627 294.468C518.689 283.678 518.528 272.888 518.143 262.104Z"/><path fill="#943F3B" transform="translate(-202 -206)" d="M394.261 303.77L396.458 303.71C400.719 303.621 401.49 303.304 404.545 306.218C410.612 311.587 420.89 319.676 426.09 325.078C421.822 329.458 400.972 346.867 395.814 350.134C388.393 345.566 370.423 333.397 364.228 327.474C369.069 322.547 376.417 317.629 381.967 313.134C383.613 311.36 392.03 305.242 394.261 303.77Z"/><path fill="#732623" transform="translate(-202 -206)" d="M394.261 303.77L396.458 303.71C400.719 303.621 401.49 303.304 404.545 306.218C397.261 304.154 395.141 304.525 390.986 310.644C387.046 311.277 385.699 311.704 381.967 313.134C383.613 311.36 392.03 305.242 394.261 303.77Z"/><path fill="#212F31" transform="translate(-202 -206)" d="M395.672 316.028C398.887 316.304 405.949 323.04 408.282 325.434C403.935 329.771 399.784 333.223 394.592 336.471C392.269 336.231 383.299 330.152 382.346 328.167C383.069 325.049 392.843 317.918 395.672 316.028Z"/><path fill="#DECEA9" transform="translate(-202 -206)" d="M395.85 359.911C399.691 361.403 422.365 379.379 425.461 382.7C421.906 386.791 399.917 406.402 395.723 409.578C392.144 409.725 369.444 391.113 366.227 387.713C369.369 383.949 392.274 362.807 395.85 359.911Z"/><path fill="#212F31" transform="translate(-202 -206)" d="M395.547 374.435C399.222 375.708 405.833 381.477 408.679 384.199C405.048 388.274 400.008 392.756 395.757 396.148C392.193 396.498 385.075 388.878 382.777 386.437C386.125 382.689 391.676 377.555 395.547 374.435Z"/><path fill="#D1A35C" transform="translate(-202 -206)" d="M357.074 333.332C361.317 333.95 384.951 351.904 388.619 355.495C384.934 359.924 366.425 376.482 361.021 381.449L359.731 381.758C354.847 380.213 333.799 362.928 329.868 358.805C334.833 351.895 349.921 338.963 357.074 333.332Z"/><path fill="#212F31" transform="translate(-202 -206)" d="M358.065 346.311C361.855 347.595 368.999 354.083 371.873 356.944C368.392 360.416 363.116 364.867 359.233 367.797C356.623 367.266 347.741 359.21 345.539 357.103C349.651 353.08 353.548 349.834 358.065 346.311Z"/><path fill="#943F3B" transform="translate(-202 -206)" d="M367.008 261.84C368.761 261.908 368.02 261.628 369.363 262.534C369.931 269.522 369.215 285.899 369.289 294.346L324.401 296.478C323.12 296.456 323.583 296.515 322.36 296.031C320.17 291.467 322.274 271.34 323.132 265.852C329.973 263.87 358.569 262.289 367.008 261.84Z"/><path fill="#943F3B" transform="translate(-202 -206)" d="M541.22 305.992C546.638 308.75 562.743 328.312 566.912 334.014C563.387 337.585 540.843 354.062 536.231 356.171C531.459 352.621 513.991 334.124 510.302 329.213C518.632 321.916 531.815 312.279 541.22 305.992Z"/><path fill="#212F31" transform="translate(-202 -206)" d="M540.366 319.311C544.211 320.677 549.653 328.722 551.868 332.025C548.596 335.517 542.801 339.574 538.788 342.228C534.734 340.533 529.422 333.738 527.363 329.886C531.822 325.665 535.483 322.916 540.366 319.311Z"/><path fill="#D1A35C" transform="translate(-202 -206)" d="M450.402 316.234C454.721 312.991 464.855 304.413 469.37 303.517C474.018 304.996 494.447 324.215 497.448 328.638C492.964 332.79 488.324 335.986 482.366 340.07C470.545 348.173 469.31 353.412 457.487 340.924C453.255 336.454 443.607 330.269 439.821 325.37C439.063 323.645 436.739 320.147 435.416 318.771C435.969 317.761 440.184 314.85 441.399 313.95C441.165 315.963 441.172 316.384 440.451 318.239C442.726 315.498 447.77 313.728 450.402 316.234Z"/><path fill="#273837" transform="translate(-202 -206)" d="M435.416 318.771C435.969 317.761 440.184 314.85 441.399 313.95C441.165 315.963 441.172 316.384 440.451 318.239C442.726 315.498 447.77 313.728 450.402 316.234C448.956 317.425 447.024 319.118 445.535 320.158C443.476 321.84 441.508 323.311 439.821 325.37C439.063 323.645 436.739 320.147 435.416 318.771Z"/><path fill="#2D2D2E" transform="translate(-202 -206)" d="M440.451 318.239C442.726 315.498 447.77 313.728 450.402 316.234C448.956 317.425 447.024 319.118 445.535 320.158C443.855 320.227 442.207 320.494 440.757 319.739L440.451 318.239Z"/><path fill="#212F31" transform="translate(-202 -206)" d="M468.18 316.55C471.33 318.055 478.499 325.79 480.897 328.489C477.346 331.714 473.365 334.573 469.364 337.2C466.289 336.208 459.121 328.598 456.872 325.93C460.037 323.031 464.763 319.355 468.18 316.55Z"/><path fill="#943F3B" transform="translate(-202 -206)" d="M324.045 364.47C330.666 369.339 346.821 382.426 352.908 387.696C349.582 392.759 331.571 409.358 326.321 413.559C321.283 412.75 301.044 395.789 297.866 391.299C302.532 384.555 317.66 369.462 324.045 364.47Z"/><path fill="#212F31" transform="translate(-202 -206)" d="M322.893 378.944C325.972 380.083 333.47 387.046 336.219 389.479C332.456 394.495 330.966 396.249 325.994 400.093L325.509 400.187C321.963 399.38 314.987 391.822 312.519 389.015C315.868 385.548 319.328 382.189 322.893 378.944Z"/><path fill="#4E837A" transform="translate(-202 -206)" d="M432.274 330.638C436.151 331.466 457.213 350.679 460.277 354.483C454.801 360.661 439.632 372.787 432.544 378.018C426.335 373.666 408.107 360.112 402.983 354.918C407.912 349.648 426.671 334.52 432.274 330.638Z"/><path fill="#212F31" transform="translate(-202 -206)" d="M431.403 344.865C436.11 346.724 441.034 351.53 444.574 354.987C440.748 358.381 436.314 361.942 432.362 365.256C428.354 363.467 422.347 357.876 419.241 354.832C422.827 351.45 427.485 347.96 431.403 344.865Z"/><path fill="#943F3B" transform="translate(-202 -206)" d="M455.18 369.388C458.068 366.693 462.331 362.305 465.863 360.635C467.136 360.034 467.453 360.546 468.732 361.203C475.926 366.655 490.048 379.284 495.865 385.626C490.436 390.875 474.397 404.124 467.789 407.926C461.845 404.559 444.385 388.661 439.313 383.321C441.737 381.03 452.541 371.193 455.18 369.388Z"/><path fill="#732623" transform="translate(-202 -206)" d="M455.18 369.388C458.068 366.693 462.331 362.305 465.863 360.635C467.136 360.034 467.453 360.546 468.732 361.203C465.707 364.382 459.477 368.953 455.18 369.388Z"/><path fill="#212F31" transform="translate(-202 -206)" d="M467.905 374.507C470.747 376.406 476.403 382.065 479.202 384.754C476.252 388.376 472.46 391.573 468.872 394.54C463.806 391.272 460.807 388.036 456.76 383.705C460.226 380.35 463.953 377.274 467.905 374.507Z"/><path fill="#4E837A" transform="translate(-202 -206)" d="M319.482 306.171C319.952 306.138 320.424 306.114 320.896 306.098C321.728 306.076 323.415 306.037 324.1 306.507C331.711 311.735 342.58 320.322 349.112 326.424C346.383 329.789 326.289 347.253 322.048 350.797C321.783 350.892 320.696 351.008 320.37 351.051C313.729 348.015 298.034 335.544 293.221 329.977C296.796 325.156 313.943 307.142 319.482 306.171Z"/><path fill="#212F31" transform="translate(-202 -206)" d="M319.589 317.066C323.344 318.554 329.024 324.154 332.15 327.032C328.829 330.632 323.851 335.12 320.204 338.571C316.227 337.454 310.12 331.772 307.043 328.933C310.738 324.723 315.259 320.608 319.589 317.066Z"/><path fill="#DECEA9" transform="translate(-202 -206)" d="M502.851 334.525C505.993 335.782 527.027 357.753 529.879 361.43C526.812 364.467 506.235 380.05 503.112 380.663C498.204 377.113 478.245 359.917 474.352 355.434C479.909 350.048 495.783 339.399 502.851 334.525Z"/><path fill="#212F31" transform="translate(-202 -206)" d="M502.419 347.644C505.798 349.64 512.15 356.876 514.419 360.206C510.701 363.029 507.112 365.923 503.019 368.172C498.138 364.924 493.808 360.525 489.857 356.229C494.22 353.038 497.771 350.416 502.419 347.644Z"/><path fill="#DECEA9" transform="translate(-202 -206)" d="M551.823 599.158C555.593 599.425 559.789 599.498 563.598 599.648C564.651 610.039 564.768 626.481 565.216 637.416C565.871 652.13 566.402 666.849 566.809 681.572C567.004 689.841 567.173 699.135 566.145 707.433C565.953 708.984 565.591 708.845 564.361 709.678C560.385 710.816 558.015 711.275 553.912 711.941C555.593 698.845 555.079 681.904 554.725 668.632C553.929 645.468 552.962 622.309 551.823 599.158Z"/><path fill="#DECEA9" transform="translate(-202 -206)" d="M342.149 599.305L343.367 599.455C345.086 601.702 344.218 605.226 344.143 607.985C343.212 642.258 338.752 678.345 342.612 712.407C340.506 711.744 337.963 711.168 335.793 710.616L330.419 708.983C329.007 698.464 329.42 686.837 329.579 676.174C329.961 650.734 332.117 625.11 332.702 599.697L342.149 599.305Z"/><path fill="#943F3B" transform="translate(-202 -206)" d="M571.99 341.285C575.196 343.135 591.056 362.919 593.651 366.896C589.9 370.646 569.728 386.872 565.549 388.421C560.94 385.292 546.339 367.709 541.996 362.617C545.099 359.495 567.909 343.712 571.99 341.285Z"/><path fill="#212F31" transform="translate(-202 -206)" d="M569.801 355.34C572.674 356.006 576.746 363.041 578.682 365.863C574.51 369.42 572.281 371.227 567.635 374.213C564.214 371.654 560.752 367.939 558.904 364.04C562.912 360.471 565.434 358.463 569.801 355.34Z"/><path fill="#DECEA9" transform="translate(-202 -206)" d="M314.548 600.345L325.653 600.115C325.385 622.869 322.894 645.844 322.834 669.171C322.873 677.032 323.157 684.889 323.688 692.732C323.9 695.723 325.29 705.388 324.959 707.228C320.359 705.582 317.277 704.538 312.917 702.226C309.65 673.539 312.077 629.944 314.548 600.345Z"/><path fill="#DECEA9" transform="translate(-202 -206)" d="M570.649 600.102L581.877 600.213C583.06 612.414 583.266 625.037 583.832 637.308C584.808 658.487 585.914 680.277 583.449 701.369C582.199 702.155 580.337 703.11 578.999 703.853L570.614 707.472C575.826 681.331 572.052 628.122 570.649 600.102Z"/><path fill="#DECEA9" transform="translate(-202 -206)" d="M534.484 367.758C537.503 367.976 555.977 389.888 558.968 393.768C551.041 400.053 542.338 406.236 534.151 412.244C530.499 409.305 511.357 389.968 508.706 386.263C513.619 381.486 528.359 371.869 534.484 367.758Z"/><path fill="#212F31" transform="translate(-202 -206)" d="M533.416 380.087C536.389 380.63 543.21 389.149 545.569 391.95C541.879 395.151 539.558 397.164 535.428 399.899C532.198 397.465 525.817 389.978 523.236 386.699C526.681 384.156 529.776 382.299 533.416 380.087Z"/><path fill="#DECEA9" transform="translate(-202 -206)" d="M288.24 336.707C290.874 338.354 312.169 355.745 314.602 358.18C311.469 362.476 297.858 376.883 293.261 382.15L290.468 385.21C281.972 378.719 275.879 372.036 269.661 363.442C272.548 356.869 283.231 342.079 288.24 336.707Z"/><path fill="#212F31" transform="translate(-202 -206)" d="M288.262 349.632C291.645 352.498 295.387 356.435 298.575 359.62C295.943 363.039 292.393 367.076 289.571 370.445C285.864 369.343 281.466 363.335 279.254 360.3C281.601 356.902 285.453 352.572 288.262 349.632Z"/><path fill="#943F3B" transform="translate(-202 -206)" d="M598.965 373.829C603.041 374.964 614.698 392.114 617.142 396.273C613.953 401.142 595.659 417.942 590.327 418.671C586.836 416.026 572.679 399.06 570.718 395.108C578.697 389.359 591.959 378.16 598.965 373.829Z"/><path fill="#212F31" transform="translate(-202 -206)" d="M597.333 387.444C600.744 387.545 604.388 394.149 606.207 396.94C602.565 400.411 598.604 403.53 594.376 406.258C591.738 405.38 587.507 398.762 585.977 396.411C589.965 393.047 593.096 390.503 597.333 387.444Z"/><path fill="#D1A35C" transform="translate(-202 -206)" d="M607.271 312.575C611.165 314.973 622.608 334.401 624.566 339.555C620.645 345.206 610.055 354.635 604.364 359.042C602.759 360.285 602.097 359.909 600.604 359.552C595.05 353.773 586.282 341.8 580.861 335.099C590.358 327.205 598.105 321.357 607.271 312.575Z"/><path fill="#273837" transform="translate(-202 -206)" d="M606.487 327.83C609.137 328.556 613.99 336.657 615.612 339.226C612.322 341.692 608.34 345.23 604.954 347.896C604.252 348.063 604.276 347.933 603.457 347.731C599.777 344.407 597.944 341.481 595.474 337.196C598.816 333.502 602.527 330.77 606.487 327.83Z"/><path fill="#943F3B" transform="translate(-202 -206)" d="M582.513 266.592C592.211 267.254 603.835 269.852 612.227 274.818C613.552 283.343 614.074 293.302 615.23 302.192C603.063 299.981 594.892 298.546 582.485 297.622C582.027 288.804 582.599 275.899 582.513 266.592Z"/><path fill="#943F3B" transform="translate(-202 -206)" d="M305.648 266.779L306.432 266.964C307.742 268.799 307.146 293.731 307.127 297.987C299.701 299.529 291.44 300.364 283.603 301.944L282.807 301.88L282.097 300.964C281.857 297.787 283.557 277.638 285.819 274.485C289.698 269.078 299.281 268.043 305.648 266.779Z"/><path fill="#D1A35C" transform="translate(-202 -206)" d="M627.515 346.281C629.092 347.019 629.921 348.936 630.843 350.407C635.449 357.746 635.816 364.45 635.504 372.825C631.517 378.663 627.984 384.169 622.766 389.01C621.71 387.726 620.705 386.371 619.694 385.048C615.81 378.996 610.77 372.643 606.233 367.085C610.909 361.651 621.493 352.608 627.515 346.281Z"/><path fill="#2D2D2E" transform="translate(-202 -206)" d="M626.352 360.408C629.283 361.035 630.156 365.59 630.906 368.088C628.015 371.792 626.703 373.32 623.138 376.347C621.323 373.938 619.653 370.385 618.246 367.632C620.896 365.166 623.599 362.758 626.352 360.408Z"/><path fill="#D1A35C" transform="translate(-202 -206)" d="M266.571 370.235C271.476 375.926 275.902 381.909 281.163 387.31C282.552 388.737 284.336 390.598 285.556 392.15C279.291 401.002 274.852 407.438 269.585 416.952C261.077 407.591 261.921 405.422 261.638 392.834L261.55 392.232C261.286 382.954 260.706 378.05 266.571 370.235Z"/><path fill="#2D2D2E" transform="translate(-202 -206)" d="M267.144 383.838L273.918 393.536C272.369 396.558 270.79 399.896 268.792 402.606C267.578 401.004 262.351 393.483 261.638 392.834L261.55 392.232C263.836 389.555 265.347 386.84 267.144 383.838Z"/><path fill="#4E837A" transform="translate(-202 -206)" d="M432.169 388.507C434.994 389.325 457.458 410.37 461.458 413.936L445.331 414.083C440.957 410.682 437.204 407.241 432.595 403.935C428.108 407.198 424.942 410.104 420.992 413.9C414.794 414.579 409.792 414.579 403.642 414.074C412.654 405.995 423.02 395.931 432.169 388.507Z"/><path fill="#943F3B" transform="translate(-202 -206)" d="M501.392 391.388C505.131 392.069 522.537 411.199 525.648 415.015C520.944 415.14 515.42 414.769 510.66 414.565C507.897 412.147 503.107 406.05 500.746 405.444C487.53 415.906 493.52 414.538 474.72 414.04C480.106 408.63 495.285 395 501.392 391.388Z"/><path fill="#D1A35C" transform="translate(-202 -206)" d="M359.832 393.01C362.89 393.893 383.109 411.235 387.059 414.478C381.913 414.643 376.396 414.583 371.217 414.611C368.146 412.057 364.685 409.603 361.453 407.224L360.288 406.794C358.581 407.741 353.662 413.342 351.352 415.461C346.73 415.751 340.845 415.702 336.133 415.782C342.694 408.771 352.706 399.008 359.832 393.01Z"/><path fill="#943F3B" transform="translate(-202 -206)" d="M264.304 324.771C263.371 326.059 262.811 327.167 261.39 327.788L260.77 326.945C261.275 316.966 268.27 312.383 273.955 322.182C275.824 325.403 280.359 328.303 282.266 331.892L281.896 332.828C282.663 337.249 282.555 337.393 279.816 341.402C278.075 343.95 273.833 347.953 270.979 349.137C269.119 352.829 268.377 354.232 265.92 357.506C265.118 356.7 264.339 355.872 263.584 355.023C258.948 349.74 259.751 344.715 260.113 338.312C261.829 340.675 263.259 342.28 265.197 344.451L269.124 337.964C269.372 337.096 270.384 334.813 270.774 333.862C268.762 329.962 267.145 328.111 264.304 324.771Z"/><path fill="#732623" transform="translate(-202 -206)" d="M265.197 344.451L269.124 337.964C268.927 338.724 268.093 341.977 267.7 342.434C264.332 346.353 261.182 346.671 265.118 352.287C266.84 352.52 266.606 352.747 267.998 352.184C269.889 349.104 269.836 347.181 273.034 345.288L270.979 349.137C269.119 352.829 268.377 354.232 265.92 357.506C265.118 356.7 264.339 355.872 263.584 355.023C258.948 349.74 259.751 344.715 260.113 338.312C261.829 340.675 263.259 342.28 265.197 344.451Z"/><path fill="#2D2D2E" transform="translate(-202 -206)" d="M273.034 345.288L281.896 332.828C282.663 337.249 282.555 337.393 279.816 341.402C278.075 343.95 273.833 347.953 270.979 349.137L273.034 345.288Z"/><path fill="#4E837A" transform="translate(-202 -206)" d="M553.193 304.814L566.864 304.902C569.84 306.612 575.217 312.925 578.017 315.79C581.696 312.998 585.005 309.99 588.454 306.932L600.388 307.994C598.274 310.528 597.161 311.582 594.692 313.797C589.085 318.488 581.546 325.032 575.518 328.865C568.241 321.613 560.498 312.479 553.193 304.814Z"/><path fill="#DECEA9" transform="translate(-202 -206)" d="M482.439 303.378C486.113 303.072 491.427 303.237 495.228 303.247C498.74 305.86 501.785 308.43 505.116 311.242C507.892 309.545 513.089 305.389 515.805 303.307C520.527 303.327 525.461 303.607 530.194 303.804L522.462 310.049C516.777 314.973 510.793 319.538 504.543 323.719C501.062 321.048 485.211 306.757 482.439 303.378Z"/><path fill="#4E837A" transform="translate(-202 -206)" d="M291.876 398.004C294.14 399.055 312.233 414.677 315.156 417.122C310.395 417.967 306.058 418.291 301.272 418.627L293.331 412.595C292.045 411.717 292.749 411.902 291.128 412.125C288.867 414.035 286.824 417.687 285.186 420.283C281.145 421.787 279.245 422.046 274.937 422.724C277.491 414.467 285.659 404.088 291.876 398.004Z"/><path fill="#DECEA9" transform="translate(-202 -206)" d="M370.656 303.441C374.682 303.254 379.088 303.465 383.146 303.573C374.342 309.521 366.025 316.476 357.053 322.312C353.659 320.23 350.038 317.455 346.786 315.083C342.382 311.736 338.248 308.645 334.092 304.984C339.026 304.906 343.399 304.866 348.323 304.391C351.606 306.729 354.114 308.323 357.59 310.371C361.982 307.611 365.486 304.006 370.656 303.441Z"/><path fill="#DECEA9" transform="translate(-202 -206)" d="M412.594 303.299C426.229 303.23 442.283 302.563 455.611 303.137C451.711 306.855 445.839 310.084 441.399 313.95C440.184 314.85 435.969 317.761 435.416 318.771L433.364 319.417C429.337 318.258 416.276 306.656 412.594 303.299Z"/><path fill="#D1A35C" transform="translate(-202 -206)" d="M621.398 400.888C625.783 404.185 631.563 419.122 632.694 424.861C630.359 424.746 628.253 424.421 625.946 424.102C624.667 421.257 622.514 415.569 619.663 414.357C617.568 416.338 615.407 418.759 613.422 420.891C610.006 420.103 605.639 419.719 602.091 419.305C608.644 413.29 615.081 407.15 621.398 400.888Z"/><path fill="#DECEA9" transform="translate(-202 -206)" d="M564.032 399.236C568.063 402.36 575.266 412.687 578.68 417.333C574.792 417.379 571.444 417.089 567.588 416.782C565.24 413.551 564.803 410.854 560.91 412.133L555.989 416.262C551.457 416.018 546.922 415.823 542.386 415.676C547.932 410.442 557.794 403.569 564.032 399.236Z"/><path fill="#943F3B" transform="translate(-202 -206)" d="M301.086 307.908C302.524 307.77 303.565 307.473 304.781 308.161C300.11 313.89 293.383 318.775 288.063 325.393C286.379 324.223 284.68 322.943 283.018 321.729C280.22 319.102 277.099 315.64 274.414 312.814C283.528 310.229 291.678 309.208 301.086 307.908Z"/><path fill="#DECEA9" transform="translate(-202 -206)" d="M613.677 310.477C617.535 311.319 620.731 311.921 624.439 313.387C626.396 316.354 626.634 317.732 629.215 320.697C635.809 321.267 637.351 324.036 632.903 329.703C631.626 331.318 630.093 333.049 628.751 334.64C623.995 325.414 618.058 318.606 613.677 310.477Z"/><path fill="#4E837A" transform="translate(-202 -206)" d="M634.276 383.475C635.245 384.446 634.111 407.551 633.353 410.046L632.662 410.029L631.642 408.095C629.801 404.129 627.915 399.466 626.168 395.407C628.806 391.345 631.336 387.329 634.276 383.475Z"/><path fill="#732623" transform="translate(-202 -206)" d="M291.785 451.44C287.69 452.32 276.481 456.356 273.252 453.808C273.423 449.739 287.769 447.691 291.066 447.017C291.066 448.753 290.824 450.071 291.785 451.44Z"/><path fill="#732623" transform="translate(-202 -206)" d="M635.962 334.59C637.283 336.713 637.094 346.047 635.362 347.916L634.537 346.801C633.535 344.782 632.108 342.351 630.994 340.34C632.671 338.226 634.151 336.576 635.962 334.59Z"/><path fill="#732623" transform="translate(-202 -206)" d="M228.367 762.245L663.049 762.258L663.103 770.06C663.083 770.098 663.063 770.135 663.043 770.173C662.786 770.403 662.529 770.634 662.271 770.864C658.192 770.714 654.092 770.71 650.012 770.707C629.997 770.691 609.982 770.694 589.967 770.688L228.396 770.742L228.367 762.245Z"/><path fill="#732623" transform="translate(-202 -206)" d="M421.736 788.224L439.265 788.099L439.346 856.099C438.144 857.232 427.255 856.765 424.851 856.751C415.389 847.445 403.597 830.797 393.18 819.799C392.835 830.636 392.402 846.096 393.009 856.764L375.338 856.717C374.92 834.144 375.178 810.762 375.161 788.127L389.132 788.23C392.84 791.696 397.336 797.656 400.66 801.701C407.555 810.093 414.149 818.643 421.327 826.817L421.736 788.224Z"/><path fill="#732623" transform="translate(-202 -206)" d="M530.34 788.138C542.958 788.08 570.929 786.295 580.446 792.416C599.273 804.528 594.009 830.782 572.349 836.782C564.909 838.612 555.661 838.554 547.996 838.537C547.803 844.079 548.151 851.159 548.291 856.815L530.465 856.745C530.224 833.877 530.182 811.007 530.34 788.138ZM548.453 824.046C555.778 824.067 564.579 825.055 570.603 820.902C574.381 815.795 576.453 809.723 570.192 805.477C563.98 801.264 555.29 802.11 548.133 802.146C548.288 809.446 548.394 816.746 548.453 824.046Z"/><path fill="#732623" transform="translate(-202 -206)" d="M475.857 788.134C481.643 787.987 488.058 788.149 493.893 788.178C501.749 803.316 508.498 822.544 516.146 838.055C518.75 843.336 522.095 852.177 525.335 856.764C518.835 856.989 512.333 857.113 505.829 857.137C504.022 852.857 502.2 847.392 499.649 843.487C498.929 842.385 498.243 842.679 496.793 842.618C487.731 842.677 478.667 842.651 469.605 842.538C467.626 847.253 465.731 852.001 463.918 856.782L445.213 856.688C455.687 834.052 465.285 810.456 475.857 788.134ZM475.496 829.111L487.232 829.13L494.356 829.162C493.157 826.214 485.775 807.165 484.633 805.953C481.362 813.582 478.315 821.304 475.496 829.111Z"/><path fill="#732623" transform="translate(-202 -206)" d="M618.348 788.006L636.734 788.03C646.624 809.936 657.19 835.482 667.65 856.72C661.343 856.863 655.035 856.958 648.726 857.004C647.026 852.731 645.486 847.129 642.937 843.251C642.244 842.197 641.49 842.439 640.138 842.336L612.328 842.559C610.343 847.355 608.25 852.106 606.049 856.808L588.043 856.731C591.543 850.187 596.019 839.209 599.134 832.182C605.727 817.539 612.132 802.812 618.348 788.006ZM618.105 829.182L629.028 829.203C631.718 829.354 634.591 829.586 637.269 829.473L627.719 805.235C624.922 811.925 620.11 822.546 618.105 829.182Z"/><path fill="#732623" transform="translate(-202 -206)" d="M320.583 788.064L338.566 788.053C342.935 796.494 347.109 806.679 350.982 815.462C357.061 829.272 363.256 843.029 369.568 856.734L350.602 857.07C348.661 852.591 347.579 847.548 344.978 843.507C344.219 842.327 343.222 842.651 341.554 842.556L314.517 842.56C312.921 847.031 310.626 852.257 308.787 856.722L290.345 856.709C299.633 833.614 311.577 811.409 320.583 788.064ZM320.254 829.196L330.313 829.191L339.132 829.149C337.012 823.671 331.386 810.158 329.887 805.017C326.653 812.979 323.214 821.151 320.254 829.196Z"/><path fill="#732623" transform="translate(-202 -206)" d="M228.583 788.069L247.374 788.073C252.948 796.47 258.817 808.03 264.586 817.218C270.665 807.832 276.056 797.688 282.004 788.1C287.856 787.979 293.993 788.118 299.87 788.171C295.599 795.936 289.611 805.325 284.961 813.033C271.205 837.103 272.234 826.388 272.678 856.962C267.67 856.6 260.017 856.803 254.804 856.795L254.793 832.298C246.205 818.18 236.642 802.466 228.583 788.069Z"/></g></svg>