<?xml version="1.0" encoding="utf-8" ?>
<svg xmlns="http://www.w3.org/2000/svg" xmlns:xlink="http://www.w3.org/1999/xlink" width="512" height="512" viewBox="0 0 512 512">
  <defs>
    <clipPath id="cl_3"><rect x="-0.0001373291" y="3.0517578e-05" width="311.38885" height="352.95139"/></clipPath>
  </defs>
  <g transform="translate(100.5, 79.5)">
    <g clip-path="url(#cl_3)"><path fill="#1F3236" transform="matrix(0.659722 0 0 0.659722 -143.82 -145.139)" d="M455.182 250.581C468.687 250.214 489.244 250.655 502.962 252.028C504.135 252.145 507.369 254.164 508.563 254.915C515.421 251.38 524.283 251.871 531.816 252.832C544.587 254.463 561.292 252.39 572.327 259.035C582.933 254.127 615.098 260.611 620.312 271.393C623.295 277.562 624.102 296.325 624.996 304.181C626.18 304.613 627.349 305.084 628.502 305.594C635.527 308.768 640.247 313.881 642.859 321.144C644.267 325.06 644.409 329.994 644.523 334.111C644.861 346.261 643.133 421.951 640.085 427.658C638.296 431.008 635.148 432.368 631.744 433.499C632.104 444.152 632.241 454.811 632.155 465.469C632.002 478.672 630.473 487.222 635.045 499.819C635.886 502.137 635.601 512.72 635.499 516.014C634.811 538.321 634.004 560.999 630.347 583.046C628.898 591.915 625.307 594.858 623.975 601.22C623.231 604.774 622.968 614.867 622.414 619.407C619.613 642.371 617.767 668.849 608.262 690.054C606.627 693.701 601.982 699.628 599.222 702.094C567.353 730.558 480.188 731.687 438.58 730.999C398.9 728.375 311.258 731.554 288.354 692.425C278.703 675.938 273.404 620.579 272.141 598.807C267.377 592.513 266.183 587.931 265.199 580.013C261.991 554.202 260.025 528.028 260.559 502.01C260.656 497.285 264.264 491.619 264.182 486.668C263.818 469.047 264.365 451.599 263.888 433.961C260.646 432.789 257.301 431.086 255.852 427.762C252.691 420.512 250.903 345.395 251.442 334.138C251.678 329.21 252.212 323.581 254.097 318.975C257.521 310.61 264.141 307.218 272.047 303.961C274.037 279.037 270.518 262.788 299.807 257.938C308.181 256.551 308.915 254.915 317.457 259.024C319.417 257.657 321.703 255.989 324.349 255.695C340.007 253.961 358.014 252.12 373.661 252.633C375.142 252.681 377.92 254.549 379.134 255.345C383.187 251.671 389.706 250.909 394.951 251.219C408.264 252.007 432.597 247.548 443.825 253.99C448.812 251.171 449.505 250.81 455.182 250.581Z"/><path fill="#8C3633" transform="matrix(0.659722 0 0 0.659722 -143.82 -145.139)" d="M278.353 479.958C299.408 474.179 379.998 468.193 397.652 478.055C403.135 481.118 405.876 486.244 407.506 492.132C414.603 517.758 407.545 551.486 402.861 577.178C401.401 585.187 398.738 593.964 398.954 602.127C399.074 606.632 400.173 610.949 404.384 613.272C406.831 614.621 409.68 615.194 412.434 615.477C423.337 616.6 482.27 616.444 488.853 614.371C491.911 613.408 494.222 611.966 495.638 609.004C499.853 600.183 493.619 580.452 491.899 570.655C488.124 549.156 480.232 504.66 491.282 485.238C493.612 481.143 497.001 478.265 501.412 476.569C521.898 468.694 597.591 474.709 619.484 480.203C621.274 481.034 621.707 481.049 622.555 482.689L622.602 483.884C620.34 486.302 619.395 485.459 616.356 484.719C607.883 482.818 599.051 481.917 590.395 481.326C574.519 480.242 515.447 478.608 503.281 485.893C499.594 488.101 498.113 492.635 497.224 496.621C493.624 512.763 495.47 578.051 503.905 590.44C506.305 593.966 510.611 595.358 514.63 596.003C520.5 596.947 527.672 596.509 533.228 598.22C537.17 598.432 541.67 598.55 545.547 598.895L547.409 661.236C547.748 673.068 548.816 702.542 546.266 713.481C542.019 714.335 537.758 715.118 533.486 715.831L526.964 716.817C532.674 699.712 527.706 682.274 507.081 680.736C494.523 679.8 480.844 680.302 468.188 680.219C450.772 680.104 433.355 680.115 415.939 680.252C407.976 680.292 390.05 679.868 383.189 681.63C377.435 683.072 372.527 686.816 369.616 691.984C365.017 700.125 366.602 708.255 368.947 716.674L362.532 715.724C358.153 715.09 354.062 714.478 349.703 713.645C348.975 709.018 348.465 703.898 348.411 699.202C348.034 665.801 350.112 632.475 350.598 599.065C354.305 598.632 358.941 598.566 362.737 598.411C368.417 597.666 374.176 597.28 379.823 596.334C384.259 595.591 389.311 594.289 391.976 590.343C399.899 578.614 402.12 514.343 399.418 499.274C398.613 494.783 397.156 488.948 393.119 486.303C381.691 478.817 328.018 479.879 312.839 480.721C302.728 481.282 292.455 482.164 282.512 484.13C279.836 484.608 277.347 485.882 274.949 485.28C273.917 483.63 274.18 484.33 274.367 482.089C275.846 480.332 275.764 480.806 278.353 479.958Z"/><path fill="#D4A35B" transform="matrix(0.659722 0 0 0.659722 -143.82 -145.139)" d="M533.228 598.22C537.17 598.432 541.67 598.55 545.547 598.895L547.409 661.236C547.748 673.068 548.816 702.542 546.266 713.481C542.019 714.335 537.758 715.118 533.486 715.831C535.58 705.108 535.101 692.59 535.318 681.585C535.864 653.767 533.584 625.997 533.228 598.22Z"/><path fill="#D4A35B" transform="matrix(0.659722 0 0 0.659722 -143.82 -145.139)" d="M350.598 599.065C354.305 598.632 358.941 598.566 362.737 598.411C362.269 631.48 359.954 664.378 360.886 697.457C361.078 704.252 361.161 708.983 362.532 715.724C358.153 715.09 354.062 714.478 349.703 713.645C348.975 709.018 348.465 703.898 348.411 699.202C348.034 665.801 350.112 632.475 350.598 599.065Z"/><path fill="#8C3633" transform="matrix(0.659722 0 0 0.659722 -143.82 -145.139)" d="M282.512 484.13C279.836 484.608 277.347 485.882 274.949 485.28C273.917 483.63 274.18 484.33 274.367 482.089C275.846 480.332 275.764 480.806 278.353 479.958C279.775 482.137 280.025 483.196 282.512 484.13Z"/><path fill="#8C3633" transform="matrix(0.659722 0 0 0.659722 -143.82 -145.139)" d="M619.484 480.203C621.274 481.034 621.707 481.049 622.555 482.689L622.602 483.884C620.34 486.302 619.395 485.459 616.356 484.719C618.183 483.047 618.38 482.452 619.484 480.203Z"/><path fill="#1F3236" transform="matrix(0.659722 0 0 0.659722 -143.82 -145.139)" d="M399.341 624.067L400.215 624.031C420.225 623.241 441.493 623.854 461.632 623.71C478.143 623.933 494.518 623.107 510.955 625.042C528.166 627.067 528.693 634.973 529.655 649.557C531.537 678.076 520.18 675.465 497.918 675.15C475.424 674.82 452.928 674.705 430.431 674.804C414.332 675.004 398.295 675.555 382.121 675.078C370.48 674.57 366.762 669.989 366.523 658.849C365.854 627.653 370.338 624.973 399.341 624.067Z"/><path fill="#8C3633" transform="matrix(0.659722 0 0 0.659722 -143.82 -145.139)" d="M397.246 629.116C413.866 628.126 434.168 629.12 451.225 628.821C468.39 629.061 485.456 628.369 502.602 629.204C523.753 630.338 523.285 633.833 524.402 652.82C525.633 673.758 516.014 670.184 498.748 669.934C460.725 669.678 422.808 669.26 384.769 669.905C382.088 669.95 377.203 669.256 374.799 668.088C372.989 665.803 372.026 662.421 372.024 659.485C372.007 632.994 371.027 630.712 397.246 629.116Z"/><path fill="#1F3236" transform="matrix(0.659722 0 0 0.659722 -143.82 -145.139)" d="M411.487 640.969C424.498 640.634 503.346 638.981 508.23 643.33C509.986 644.895 510.577 648.035 510.667 650.255C510.746 652.206 510.54 653.849 509.119 655.283C505.974 658.458 488.976 657.085 483.901 657.011C467.496 657.004 451.667 656.792 434.67 656.722C421.205 656.666 401.476 658.182 388.033 655.787C384.127 654.735 385.154 644.703 387.24 643.42C392.499 640.186 405.495 641.053 411.487 640.969Z"/><path fill="#E3D0A8" transform="matrix(0.659722 0 0 0.659722 -143.82 -145.139)" d="M354.92 451.427C364.132 450.906 375.339 451.09 384.763 450.945C397.715 450.747 413.159 450.451 425.922 452.058C437.029 453.457 441.63 459.507 447.654 468.009C452.035 462.705 456.424 456.632 462.942 453.837C477.617 447.545 571.877 452.105 592.437 454.55C602.531 455.75 613.179 457.253 622.642 461.086L622.623 476.622C592.287 467.039 541.663 468.535 509.622 469.642C472.106 470.937 481.063 528.919 484.48 554.291C485.512 563.639 494.258 600.922 491.662 606.34C490.692 608.366 488.82 609.597 486.706 610.194C479.617 612.195 423.388 611.623 413.978 610.834C411.714 610.644 408.438 610.358 406.516 609.07C403.97 607.364 403.82 602.259 403.966 599.466C404.438 590.442 407.116 581.075 408.771 572.183C413.3 547.849 418.646 516.124 412.532 491.869C410.719 484.677 407.51 477.884 400.867 474.045C384.613 464.65 318.321 469 298.166 471.572C289.743 472.647 281.65 474.267 273.465 476.52L273.441 461.038C294.479 452.832 332.051 452.017 354.92 451.427Z"/><path fill="#4F847E" transform="matrix(0.659722 0 0 0.659722 -143.82 -145.139)" d="M317.699 489.06C335.229 488.31 370.055 488.335 385.804 492.288C398.432 495.458 389.663 574.261 385.027 585.759C376.727 589.968 352.963 590.182 342.961 590.677C334.865 591.249 281.296 593.342 277.756 590.362C274.726 587.811 273.524 571.955 273.059 567.833C271.824 556.905 266.801 502.629 271.991 496.988C278.304 490.125 308.059 489.526 317.699 489.06Z"/><path fill="#1F3236" transform="matrix(0.659722 0 0 0.659722 -143.82 -145.139)" d="M321.341 500.307C332.273 499.985 369.305 499.24 376.622 503.516C383.435 507.498 379.768 568.016 374.086 575.251C371.135 579.007 342.259 579.181 337.055 579.318C332.133 579.371 282.761 580.46 282.042 578.299C276.629 562.044 274.212 522.878 278.527 505.973C279.506 502.137 315.615 500.556 321.341 500.307Z"/><path fill="#D4A35B" transform="matrix(0.659722 0 0 0.659722 -143.82 -145.139)" d="M314.56 510.424C326.787 509.56 357.427 509.296 368.329 512.885C371.991 514.09 370.161 562.272 365.372 566.331C362.517 568.75 344.845 568.485 340.57 568.568C331.012 568.608 296.492 570.396 290.059 568.211C288.333 566.437 287.234 563.414 286.997 561.093C286.107 552.377 282.203 520.528 286.492 514.407C291.065 511.52 308.14 510.897 314.56 510.424Z"/><path fill="#4F847E" transform="matrix(0.659722 0 0 0.659722 -143.82 -145.139)" d="M559.316 489.08C570.672 488.896 616.485 489.415 623.842 496.635C625.385 498.149 625.705 501.937 625.881 504.041C626.911 516.351 624.737 582.647 618.05 589.658C614.557 593.322 578.899 591.713 571.437 591.658C558.578 591.128 522.123 590.354 512.132 586.056C505.013 582.993 500.337 500.023 507.724 493.663C512.849 489.25 550.091 489.229 559.316 489.08Z"/><path fill="#1F3236" transform="matrix(0.659722 0 0 0.659722 -143.82 -145.139)" d="M537.165 500.942C549.891 499.94 610.011 499.951 617.048 505.731C618.531 506.949 618.949 509.486 619.206 511.31C620.466 520.268 619.164 572.156 614.319 577.897C612.201 580.407 600.963 579.65 597.473 579.732C587.786 580.084 526.103 580.089 521.79 575.906C517.199 571.453 516.384 544.065 516.014 537.369C515.658 530.949 514.431 508.385 518.761 504.163C522.486 500.531 532.275 501.179 537.165 500.942Z"/><path fill="#D4A35B" transform="matrix(0.659722 0 0 0.659722 -143.82 -145.139)" d="M551.755 510.435C561.899 510.181 602.642 510.038 609.438 514.956C613.594 521.601 610.873 559.361 606.948 567.588C605.737 570.127 589.269 569.314 585.803 569.272C570.673 569.355 548.612 569.033 533.313 567.492C531.597 567.319 530.174 566.324 529.528 564.705C526.385 556.825 524.152 520.481 526.64 513.923C530.096 510.283 546.025 510.657 551.755 510.435Z"/><path fill="#4F847E" transform="matrix(0.659722 0 0 0.659722 -143.82 -145.139)" d="M395.278 422.183C412.807 421.356 435.395 422.136 453.526 422.099C479.257 421.951 504.989 422.117 530.716 422.599C555.255 423.126 599.925 423.728 622.167 432.818C622.335 437.418 622.262 442.624 622.288 447.267C588.776 436.992 538.19 437.699 502.317 437.158L414.75 437.071C378.463 437.068 305.263 435.941 273.696 447.045L273.8 432.495C300.721 422.187 365.586 422.606 395.278 422.183Z"/><path fill="#D4A35B" transform="matrix(0.659722 0 0 0.659722 -143.82 -145.139)" d="M401.918 684.823C436.301 684.009 471.459 684.699 505.862 685.413C524.33 685.797 528.258 703.272 520.783 717.54C511.957 718.406 503.116 719.113 494.264 719.66C467.488 721.445 440.629 721.654 413.828 720.288C402.235 719.756 386.288 718.849 375.022 717.102C370.655 709.297 369.26 698.695 375.949 691.644C382.763 684.461 392.799 684.977 401.918 684.823Z"/><path fill="#8C3633" transform="matrix(0.659722 0 0 0.659722 -143.82 -145.139)" d="M367.015 441.82L368.14 441.794C398.209 441.138 436.603 441.682 466.354 441.548C491.179 441.436 609.979 440.685 622.126 452.325C622.457 454.356 622.662 453.782 621.919 455.385C621.555 455.483 620.816 455.694 620.418 455.581C587.535 446.229 550.143 447.698 516.469 446.843C501.736 446.696 486.584 446.171 471.868 447.178C461.484 447.89 454.299 452.092 447.938 460.21C442.67 453.861 437.754 449.363 429.332 448.119C412.686 445.66 394.998 446.636 378.177 446.86C347.906 447.264 317.031 446.766 287.212 452.544C283.548 453.254 277.432 455.198 274.104 455.314L273.328 453.923L273.729 452.642C283.095 443.457 351.286 442.22 367.015 441.82Z"/><path fill="#8C3633" transform="matrix(0.659722 0 0 0.659722 -143.82 -145.139)" d="M454.94 260.123C467.654 259.396 480.325 260.722 493.308 260.611C507.153 260.492 501.711 270.965 503.429 280.986C504.12 285.017 505.706 293.768 500.731 294.184C484.429 294.238 466.936 294.421 450.691 293.971C450.457 287.776 449.793 266.983 450.912 261.865C452.571 260.222 452.247 260.719 454.94 260.123Z"/><path fill="#8C3633" transform="matrix(0.659722 0 0 0.659722 -143.82 -145.139)" d="M394.293 260.677C404.862 260.487 426.045 259.589 436.007 260.512C437.822 268.713 437.277 285.061 437.037 293.686L428.173 293.99C413.458 294.189 398.741 294.266 384.024 294.222C383.602 289.47 383.488 266.877 386.139 262.18C387.011 260.635 392.215 260.75 394.293 260.677Z"/><path fill="#E3D0A8" transform="matrix(0.659722 0 0 0.659722 -143.82 -145.139)" d="M281.942 600.298C289.686 600.364 299.825 599.812 307.263 600.441C305.791 624.995 302.214 679.469 310.739 701.424C306.494 698.769 301.761 696.021 299.407 691.353C287.337 677.723 283.533 620.167 281.942 600.298Z"/><path fill="#8C3633" transform="matrix(0.659722 0 0 0.659722 -143.82 -145.139)" d="M281.942 600.298C289.686 600.364 299.825 599.812 307.263 600.441L295.376 600.596C294.36 625.951 292.846 667.107 299.407 691.353C287.337 677.723 283.533 620.167 281.942 600.298Z"/><path fill="#E3D0A8" transform="matrix(0.659722 0 0 0.659722 -143.82 -145.139)" d="M589.17 600.393C596.997 599.802 606.54 600.436 614.709 600.186C613.037 617.802 607.992 677.385 597.639 689.019C594.849 694.199 590.932 696.784 586.29 700.117C594.064 674.131 590.492 628.029 589.17 600.393Z"/><path fill="#8C3633" transform="matrix(0.659722 0 0 0.659722 -143.82 -145.139)" d="M589.17 600.393C596.997 599.802 606.54 600.436 614.709 600.186C613.037 617.802 607.992 677.385 597.639 689.019C602.568 656.045 602.676 633.959 600.862 600.545C596.964 600.551 593.066 600.501 589.17 600.393Z"/><path fill="#8C3633" transform="matrix(0.659722 0 0 0.659722 -143.82 -145.139)" d="M518.102 261.884C525.399 261.96 560.181 263.491 565.315 265.969C569.091 270.181 568.555 290.109 568.62 296.216C551.93 295.306 535.224 294.735 518.511 294.505C518.847 283.637 518.493 272.744 518.102 261.884Z"/><path fill="#8C3633" transform="matrix(0.659722 0 0 0.659722 -143.82 -145.139)" d="M394.193 303.871L400.916 303.777C405.579 306.813 421.911 320.877 426.156 324.978C423.61 327.79 399.556 347.491 396.056 349.956C389.214 346.583 369.971 332.73 364.33 327.637C367.409 323.982 389.279 307.499 394.193 303.871Z"/><path fill="#1F3236" transform="matrix(0.659722 0 0 0.659722 -143.82 -145.139)" d="M395.638 316.032C398.871 316.364 405.617 323.025 408.289 325.419C403.992 329.477 399.405 333.217 394.565 336.61C391.776 336.538 383.728 329.94 381.381 328.026C385.221 324.176 391.257 319.204 395.638 316.032Z"/><path fill="#E3D0A8" transform="matrix(0.659722 0 0 0.659722 -143.82 -145.139)" d="M395.567 359.765C399.126 360.972 422.474 379.49 425.555 382.888C419.946 388.743 402.566 404.105 396.309 409.248L394.887 409.522C390.325 408.101 370.291 391.884 366.286 387.822C368.185 385.277 373.666 380.45 376.186 378.073L395.567 359.765Z"/><path fill="#1F3236" transform="matrix(0.659722 0 0 0.659722 -143.82 -145.139)" d="M395.409 374.419C399.094 375.815 405.655 381.498 408.605 384.128C404.723 388.485 400.224 392.345 395.811 396.144C392.66 396.901 384.826 388.741 382.733 386.48C386.797 382.294 391.026 378.27 395.409 374.419Z"/><path fill="#D4A35B" transform="matrix(0.659722 0 0 0.659722 -143.82 -145.139)" d="M357.159 333.382C360.892 333.57 385.122 352.125 388.641 355.547C384.823 359.931 366.012 376.869 360.766 381.529L359.456 381.764C355.407 380.188 331.015 361.8 330.733 358.278C332.925 353.022 351.808 337.422 357.159 333.382Z"/><path fill="#1F3236" transform="matrix(0.659722 0 0 0.659722 -143.82 -145.139)" d="M358.249 346.346C361.838 348.051 368.857 354.086 371.815 356.761C368.182 360.752 363.3 364.792 358.969 368.009C353.973 364.555 349.858 361.46 345.615 357.117C349.522 353.199 353.87 349.71 358.249 346.346Z"/><path fill="#8C3633" transform="matrix(0.659722 0 0 0.659722 -143.82 -145.139)" d="M359.494 262.364C362.693 262.07 366.312 262.12 369.556 262.091C369.485 272.952 369.204 283.374 369.278 294.33C358.538 295.297 343.956 295.48 332.838 296.045C329.403 296.407 325.12 296.436 321.605 296.551C320.803 288.637 321.55 272.804 323.809 265.344C334.397 263.723 348.644 263.024 359.494 262.364Z"/><path fill="#8C3633" transform="matrix(0.659722 0 0 0.659722 -143.82 -145.139)" d="M540.894 305.878C546.483 308.757 563.103 328.641 566.9 334.226C563.198 337.725 540.518 354.167 536.459 356.492C531.806 352.627 513.408 333.778 510.391 329.364C518.451 321.549 531.582 312.591 540.894 305.878Z"/><path fill="#1F3236" transform="matrix(0.659722 0 0 0.659722 -143.82 -145.139)" d="M540.245 319.343C543.429 320.193 549.824 328.895 552.159 331.787C548.771 335.432 542.771 339.36 538.551 342.191C534.73 340.408 529.572 333.47 526.905 329.999C531.338 326.211 535.626 322.898 540.245 319.343Z"/><path fill="#8C3633" transform="matrix(0.659722 0 0 0.659722 -143.82 -145.139)" d="M323.619 364.891C326.274 365.15 349.649 385.116 353.126 388.311C348.413 393.645 332.294 408.677 326.913 413.023L325.42 413.371C320.777 411.94 301.865 395.862 297.838 391.745C300.794 386.038 318.256 368.756 323.619 364.891Z"/><path fill="#1F3236" transform="matrix(0.659722 0 0 0.659722 -143.82 -145.139)" d="M322.486 379.488C325.93 379.676 333.636 387.355 336.334 389.869C332.654 393.922 330.13 396.447 326.078 400.129L324.953 400.174C320.124 397.081 316.553 393.355 312.605 389.278C315.917 385.765 318.997 382.797 322.486 379.488Z"/><path fill="#D4A35B" transform="matrix(0.659722 0 0 0.659722 -143.82 -145.139)" d="M468.445 303.073C472.641 303.276 494.43 324.354 497.385 328.544C493.358 332.672 473.833 346.135 468.442 349.497C466.491 349.443 442.701 328.396 439.529 325.297C443.307 321.205 463.187 306.479 468.445 303.073Z"/><path fill="#1F3236" transform="matrix(0.659722 0 0 0.659722 -143.82 -145.139)" d="M468.252 316.537C470.858 317.971 478.65 325.94 480.944 328.275C477.545 331.664 473.34 334.559 469.356 337.223C464.157 333.566 461.17 330.637 456.844 325.968C460.221 322.955 464.692 319.462 468.252 316.537Z"/><path fill="#4F847E" transform="matrix(0.659722 0 0 0.659722 -143.82 -145.139)" d="M432.217 330.656C436.28 331.718 456.856 350.608 460.324 354.473C457.288 357.846 435.606 376.95 432.185 377.839C426.033 373.656 408.554 360.237 403.094 355.1C406.79 350.341 426.783 334.44 432.217 330.656Z"/><path fill="#1F3236" transform="matrix(0.659722 0 0 0.659722 -143.82 -145.139)" d="M431.648 344.707C435.152 345.839 441.748 352.227 444.371 354.806C440.561 358.589 436.438 361.854 432.293 365.26C427.009 362.265 423.511 358.89 419.179 354.751C423.348 351.026 427.174 348.022 431.648 344.707Z"/><path fill="#8C3633" transform="matrix(0.659722 0 0 0.659722 -143.82 -145.139)" d="M466.814 360.028C471.767 362.982 492.32 381.294 495.623 385.747C490.557 390.769 474.333 403.566 468.279 407.818C464.457 407.564 443.098 387.239 439.225 383.312C443.933 378.543 461.774 363.318 466.814 360.028Z"/><path fill="#1F3236" transform="matrix(0.659722 0 0 0.659722 -143.82 -145.139)" d="M467.572 374.531C470.274 375.659 476.942 382.681 479.272 385.035C476.101 388.381 472.403 391.508 468.935 394.57C465.473 393.077 459.513 386.672 456.686 383.744C460.625 380.084 463.307 377.796 467.572 374.531Z"/><path fill="#4F847E" transform="matrix(0.659722 0 0 0.659722 -143.82 -145.139)" d="M319.995 306.194C321.027 306.16 323.374 306.046 324.287 306.643C331.213 311.171 337.418 316.884 343.945 321.971C345.786 323.406 347.528 324.956 349.21 326.586C344.383 331.983 327.785 346.032 321.503 351.426C316.468 350.813 296.969 334.245 293.141 330.05C297.66 324.535 313.529 307.111 319.995 306.194Z"/><path fill="#1F3236" transform="matrix(0.659722 0 0 0.659722 -143.82 -145.139)" d="M319.518 317.076C323.693 319.107 328.569 323.799 332.023 327.068C328.342 331.236 323.988 335.069 319.89 338.853C315.935 336.739 310.482 331.994 306.934 328.982C310.374 324.731 315.341 320.69 319.518 317.076Z"/><path fill="#E3D0A8" transform="matrix(0.659722 0 0 0.659722 -143.82 -145.139)" d="M502.775 334.517C505.603 335.362 527.226 358.052 529.9 361.639C526.333 364.877 506.604 379.433 503.037 380.936C494.934 374.002 481.153 362.801 474.207 355.292C479.919 350.167 496.124 338.982 502.775 334.517Z"/><path fill="#1F3236" transform="matrix(0.659722 0 0 0.659722 -143.82 -145.139)" d="M502.37 347.645C504.979 349.304 512.193 357.282 514.518 359.795C511.776 362.636 506.612 365.98 503.224 368.293C498.389 364.983 493.931 360.532 489.883 356.303C494.121 353.173 497.97 350.544 502.37 347.645Z"/><path fill="#E3D0A8" transform="matrix(0.659722 0 0 0.659722 -143.82 -145.139)" d="M551.759 599.448L563.592 599.659C565.614 625.428 565.28 652.369 566.608 678.252C566.88 683.554 567.791 706.949 564.561 709.54C560.521 710.787 558.048 711.284 553.859 712.042C555.839 694.643 554.979 673.181 554.256 655.526L551.759 599.448Z"/><path fill="#E3D0A8" transform="matrix(0.659722 0 0 0.659722 -143.82 -145.139)" d="M332.639 599.72L344.293 599.309C343.981 632.44 338.356 680.453 342.665 712.406L330.383 709.188L330.338 708.853C329.989 706.059 329.599 703.255 329.535 700.435C328.777 666.833 331.773 633.287 332.639 599.72Z"/><path fill="#8C3633" transform="matrix(0.659722 0 0 0.659722 -143.82 -145.139)" d="M571.589 341.255C574.735 342.463 591.296 363.377 593.755 367.215C586.712 372.842 572.84 384.417 565.741 388.844C561.362 385.456 546.647 367.974 542.016 362.636C549.491 356.341 563.267 347.138 571.589 341.255Z"/><path fill="#1F3236" transform="matrix(0.659722 0 0 0.659722 -143.82 -145.139)" d="M569.548 355.306C572.067 355.729 576.968 363.329 578.713 365.717C574.725 368.977 571.87 371.342 567.507 374.133C564.736 372.302 560.424 366.709 558.539 364.023C561.973 361.154 566.004 358.109 569.548 355.306Z"/><path fill="#E3D0A8" transform="matrix(0.659722 0 0 0.659722 -143.82 -145.139)" d="M314.534 600.402L325.7 600.181C325.249 631.929 320.827 663.919 323.877 695.805C324.203 699.217 325.394 704.472 325.257 707.514C320.9 705.869 317.523 704.485 313.267 702.569C309.694 683.359 311.705 658.776 312.315 639.03C312.684 627.047 313.404 612.295 314.534 600.402Z"/><path fill="#E3D0A8" transform="matrix(0.659722 0 0 0.659722 -143.82 -145.139)" d="M570.477 600.148L581.967 600.328C582.936 614.991 583.65 629.669 584.109 644.356C584.788 661.624 585.717 684.59 583.326 701.422C582.004 702.241 579.864 703.3 578.433 704.068L570.564 707.45C575.556 682.843 572.31 627.027 570.477 600.148Z"/><path fill="#E3D0A8" transform="matrix(0.659722 0 0 0.659722 -143.82 -145.139)" d="M534.996 367.304C538.26 369.53 555.648 389.612 558.852 393.581C556.189 396.204 536.39 411.428 533.348 412.006C528.329 407.114 511.937 390.588 508.537 386.196C514.07 381.291 528.475 371.84 534.996 367.304Z"/><path fill="#1F3236" transform="matrix(0.659722 0 0 0.659722 -143.82 -145.139)" d="M533.379 380.117C536.266 380.764 543.216 389.263 545.599 391.901C541.892 395.16 539.531 397.085 535.485 399.998C532.14 397.432 525.845 390.08 523.141 386.766C526.186 384.395 530.05 382.162 533.379 380.117Z"/><path fill="#E3D0A8" transform="matrix(0.659722 0 0 0.659722 -143.82 -145.139)" d="M288.331 336.708C291.792 339.152 311.807 355.205 313.761 358.146C313.554 360.485 296.797 377.951 294.083 381.141L290.359 385.321C282.484 378.865 275.377 371.895 269.722 363.376C272.58 356.395 283.019 342.354 288.331 336.708Z"/><path fill="#1F3236" transform="matrix(0.659722 0 0 0.659722 -143.82 -145.139)" d="M288.103 349.858C290.919 351.598 296.038 357.018 298.57 359.568C295.892 363.015 292.409 366.994 289.573 370.386C286.327 369.66 281.183 362.943 279.182 360.31C281.906 356.62 284.887 353.128 288.103 349.858Z"/><path fill="#8C3633" transform="matrix(0.659722 0 0 0.659722 -143.82 -145.139)" d="M598.416 373.884L599.776 374.155C604.468 377.712 613.89 391.295 617.161 396.609C613.499 401.076 596.095 417.884 590.806 418.748C587.089 417.2 572.799 398.948 570.662 395.063C580.114 388.588 589.35 380.967 598.416 373.884Z"/><path fill="#1F3236" transform="matrix(0.659722 0 0 0.659722 -143.82 -145.139)" d="M597.498 387.441C600.675 388.082 604.315 393.98 606.398 396.832C602.444 400.123 598.67 403.438 594.323 406.194C591.817 405.551 587.222 398.78 585.58 396.463C589.786 393.017 593.033 390.548 597.498 387.441Z"/><path fill="#D4A35B" transform="matrix(0.659722 0 0 0.659722 -143.82 -145.139)" d="M607.282 312.573C610.921 314.628 622.731 334.772 624.535 339.726C621.248 344.501 608.386 356.577 603.004 359.865C602.037 360.455 602.021 360.138 600.815 359.684C595.63 354.241 586.128 341.789 580.766 335.322C582.312 333.855 584.229 332.371 585.926 331.044C593.371 325.223 600.3 318.934 607.282 312.573Z"/><path fill="#1F3236" transform="matrix(0.659722 0 0 0.659722 -143.82 -145.139)" d="M606.537 327.801C609.054 328.592 613.977 336.706 615.58 339.279C611.828 342.22 608.108 345.202 604.419 348.222C601.381 347.27 597.046 339.883 595.395 337.124C599.003 333.64 602.607 330.894 606.537 327.801Z"/><path fill="#8C3633" transform="matrix(0.659722 0 0 0.659722 -143.82 -145.139)" d="M582.569 266.546C588.78 266.961 607.287 270.231 611.27 274.843C613.281 277.172 614.92 298.059 614.575 301.952C603.866 299.976 593.075 298.474 582.232 297.452C582.501 287.086 582.309 276.839 582.569 266.546Z"/><path fill="#8C3633" transform="matrix(0.659722 0 0 0.659722 -143.82 -145.139)" d="M305.181 266.72C305.634 266.758 306.171 267.034 306.636 267.22C307.648 270.13 307.232 293.492 307.223 297.951C299.566 299.399 291.497 300.42 283.63 301.877C282.538 301.993 283.056 302.08 282.1 301.416C281.618 297.892 283.546 277.971 285.79 274.384C288.822 269.538 299.551 268.028 305.181 266.72Z"/><path fill="#D4A35B" transform="matrix(0.659722 0 0 0.659722 -143.82 -145.139)" d="M627.658 346.258C628.199 346.531 628.407 346.572 628.776 347.088C635.084 355.929 635.825 363.023 635.408 372.771C631.575 378.785 628.049 383.964 622.873 388.957C621.801 387.726 620.73 386.317 619.706 385.03C615.574 378.777 610.821 372.796 606.047 367.027C613.11 360.044 620.438 353.468 627.658 346.258Z"/><path fill="#1F3236" transform="matrix(0.659722 0 0 0.659722 -143.82 -145.139)" d="M626.601 359.902C628.952 361.437 630.102 365.703 631.033 368.338C628.742 371.265 626.074 373.835 623.457 376.476C620.87 373.754 619.703 371.077 618.04 367.739L626.601 359.902Z"/><path fill="#4F847E" transform="matrix(0.659722 0 0 0.659722 -143.82 -145.139)" d="M432.115 388.451C435.435 389.324 457.212 410.366 461.024 414.009C455.863 414.2 450.179 414.125 444.973 414.153C441.591 411.047 436.187 406.484 432.511 403.907C428.602 406.8 424.253 410.774 420.525 414.006C414.454 414.48 409.787 414.442 403.695 414.343C409.196 408.716 426.148 393.276 432.115 388.451Z"/><path fill="#8C3633" transform="matrix(0.659722 0 0 0.659722 -143.82 -145.139)" d="M501.323 391.334C505.127 392.052 522.198 411.03 525.536 415.012L510.371 414.567C507.422 411.382 504.359 408.304 501.189 405.339C498.039 407.444 493.682 411.555 490.46 414.178C485.201 414.219 479.788 414.114 474.516 414.075C481.083 407.594 493.786 396.441 501.323 391.334Z"/><path fill="#D4A35B" transform="matrix(0.659722 0 0 0.659722 -143.82 -145.139)" d="M266.361 370.416C266.724 370.649 283.939 390.337 285.556 392.294C278.564 401.885 275.136 406.838 269.428 417.151C266.327 413.672 264.602 410.865 262.383 406.815C261.962 402.803 261.869 396.309 261.686 392.127C264.093 396.1 265.838 398.989 268.682 402.712C270.366 400.216 272.377 396.572 273.952 393.911C271.598 390.095 269.577 387.403 266.897 383.857C265.408 386.831 263.418 390.083 261.724 392.995C261.166 382.201 260.867 379.647 266.361 370.416Z"/><path fill="#D4A35B" transform="matrix(0.659722 0 0 0.659722 -143.82 -145.139)" d="M360.055 392.967C362.839 394.131 382.957 411.103 387.08 414.478L370.838 414.663C367.883 411.924 364.661 409.581 361.45 407.151L360.507 406.818C358.502 407.438 353.491 413.474 351.807 415.325C346.942 415.735 341.081 415.746 336.118 415.873C341.293 409.826 353.894 398.108 360.055 392.967Z"/><path fill="#4F847E" transform="matrix(0.659722 0 0 0.659722 -143.82 -145.139)" d="M553.024 304.69C557.793 304.767 562.563 304.871 567.331 305.002C569.647 306.716 575.28 313.097 578.013 315.749C581.496 312.973 584.916 309.977 588.305 307.077C592.686 307.216 595.738 307.701 600.015 308.544C597.537 311.408 596.145 312.607 593.225 315.076C587.223 319.927 581.654 324.348 575.435 328.911C567.888 320.823 560.794 312.6 553.024 304.69Z"/><path fill="#E3D0A8" transform="matrix(0.659722 0 0 0.659722 -143.82 -145.139)" d="M482.208 303.313C486.42 303.216 490.798 303.261 495.025 303.244C498.113 305.151 502.321 308.859 505.225 311.266C507.982 309.453 512.96 305.388 515.769 303.28L530.343 303.72L522.839 309.714C517.279 314.256 510.499 319.917 504.59 323.765C498.441 318.874 488.209 308.862 482.208 303.313Z"/><path fill="#8C3633" transform="matrix(0.659722 0 0 0.659722 -143.82 -145.139)" d="M267.439 315.375C270.391 317.506 279.7 328.694 282.719 331.992C274.914 342.421 272.485 347.227 265.807 357.721C264.231 355.892 262.62 353.855 261.076 351.977C259.521 346.759 259.868 343.913 260.241 338.412C261.996 341.023 263.161 342.276 265.3 344.604C267.398 341.275 269.098 337.483 270.806 333.918C268.472 329.985 267.06 328.167 264.196 324.581C262.893 326.387 261.402 328.793 260.154 330.695C261.475 323.285 261.245 320.229 267.439 315.375Z"/><path fill="#4F847E" transform="matrix(0.659722 0 0 0.659722 -143.82 -145.139)" d="M291.796 397.99C294.79 399.28 311.463 414.062 315.138 417.064C310.409 418.006 305.781 418.308 300.991 418.583L292.896 412.209L291.659 411.857C289.489 413.157 286.213 418.469 284.681 420.725C281.683 421.645 277.989 422.276 274.863 422.894C277.31 414.683 285.778 404.264 291.796 397.99Z"/><path fill="#E3D0A8" transform="matrix(0.659722 0 0 0.659722 -143.82 -145.139)" d="M372.868 303.434L383.307 303.234C374.894 309.445 365.667 316.707 357.003 322.327C353.735 320.312 350.068 317.52 346.911 315.241C342.582 312.022 338.34 308.689 334.188 305.245L348.321 304.484C351.529 306.671 354.156 308.303 357.518 310.248C363.988 306.348 365.161 303.566 372.868 303.434Z"/><path fill="#E3D0A8" transform="matrix(0.659722 0 0 0.659722 -143.82 -145.139)" d="M413.727 303.443C426.459 302.804 442.75 303.206 455.722 303.18L445.965 310.38C441.77 313.668 437.491 316.845 433.13 319.909C429.729 317.531 414.68 306.487 413.727 303.443Z"/><path fill="#D4A35B" transform="matrix(0.659722 0 0 0.659722 -143.82 -145.139)" d="M621.458 400.955C625.727 404.643 631.322 419.217 632.886 424.946C630.333 424.786 628.342 424.408 625.846 423.969C624.583 421.322 622.347 416.084 620.323 414.267L619.462 414.6C617.371 416.555 615.324 418.865 613.37 420.984L602.029 419.084C608.855 413.265 614.962 407.119 621.458 400.955Z"/><path fill="#E3D0A8" transform="matrix(0.659722 0 0 0.659722 -143.82 -145.139)" d="M564.024 399.233C567.783 402.411 575.382 412.977 578.642 417.36C575.076 417.338 571.396 417.164 567.823 417.042C565.783 414.19 564.5 410.729 560.918 412.168L555.916 416.308C551.448 416.058 546.979 415.83 542.509 415.625C547.352 410.857 558.351 403.131 564.024 399.233Z"/><path fill="#8C3633" transform="matrix(0.659722 0 0 0.659722 -143.82 -145.139)" d="M301.418 307.902C302.744 307.682 303.438 307.737 304.754 307.768L304.979 308.297C298.823 314.06 293.553 319.098 287.723 325.241C285.804 324.009 284.478 322.905 282.731 321.48C279.628 318.384 277.507 316.085 274.695 312.724C282.802 310.45 293.08 309.097 301.418 307.902Z"/><path fill="#E3D0A8" transform="matrix(0.659722 0 0 0.659722 -143.82 -145.139)" d="M613.885 310.665C617.464 311.169 620.959 312.151 624.277 313.585C625.584 315.178 626.962 317.819 628.154 319.571C630.795 323.451 629.764 319.886 633.011 320.606C635.79 323.971 635.191 326.442 632.815 329.836C631.776 331.319 630.099 333.198 628.899 334.626C627.042 331.541 614.267 312.179 613.885 310.665Z"/><defs><linearGradient id="gradient_0" gradientUnits="userSpaceOnUse" x1="627.15131" y1="400.66824" x2="637.98212" y2="394.04697"><stop offset="0" stop-color="#618880"/><stop offset="1" stop-color="#6CA08F"/></linearGradient></defs><path fill="url(#gradient_0)" transform="matrix(0.659722 0 0 0.659722 -143.82 -145.139)" d="M634.292 383.554C634.895 384.218 633.857 409.313 633.804 412.742L631.626 408.125C629.595 403.736 627.822 399.421 625.977 394.956C628.26 392.552 632.242 386.493 634.292 383.554Z"/><path fill="#8C3633" transform="matrix(0.659722 0 0 0.659722 -143.82 -145.139)" d="M635.43 334.981C637.414 336.528 636.415 345.706 635.766 348.03L635.081 347.51C633.93 345.108 632.409 342.822 630.994 340.553L635.43 334.981Z"/><path fill="#AFB6A6" transform="matrix(0.659722 0 0 0.659722 -143.82 -145.139)" d="M260.34 361.36C261.588 362.172 261.91 362.759 262.793 363.93C263.222 365.965 262.613 366.827 261.787 368.818L260.792 369.181C259.98 367.349 260.3 363.579 260.34 361.36Z"/></g>
  </g>
</svg>
